<svg xmlns="http://www.w3.org/2000/svg" width="500" height="500" viewBox="0 0 500 500" version="1.1"><path d="M 251.295 143.737 C 251.195 145.058, 251.828 145.600, 253.469 145.600 C 255.115 145.600, 255.618 145.167, 255.208 144.101 C 254.794 143.022, 254.516 142.952, 254.215 143.854 C 253.912 144.763, 253.474 144.663, 252.617 143.490 C 251.550 142.032, 251.421 142.056, 251.295 143.737 M 188.872 226.692 C 187.736 228.093, 187.733 228.244, 188.857 227.567 C 189.906 226.935, 190.052 227.260, 189.500 229 C 189.019 230.517, 189.142 231.031, 189.878 230.576 C 190.478 230.205, 190.878 228.798, 190.767 227.450 C 190.525 224.536, 190.598 224.565, 188.872 226.692 M 314.325 230.658 C 314.687 231.020, 314.481 231.920, 313.869 232.658 C 313.256 233.396, 312.923 234.034, 313.128 234.077 C 317.317 234.937, 317.598 234.722, 316.393 231.582 C 316.059 230.712, 315.309 230, 314.726 230 C 314.144 230, 313.963 230.296, 314.325 230.658 M 179 243.441 C 179 245.668, 180.566 246.111, 180.730 243.931 C 180.810 242.869, 180.454 242, 179.938 242 C 179.422 242, 179 242.648, 179 243.441 M 183 246.774 C 183 249.034, 183.381 251.117, 183.846 251.405 C 184.673 251.916, 184.269 243.936, 183.426 243.093 C 183.192 242.858, 183 244.515, 183 246.774 M 186.934 260 C 186.881 260.825, 186.747 262.730, 186.637 264.232 C 186.526 265.735, 186.798 266.602, 187.241 266.159 C 188.526 264.874, 188.901 261.455, 187.926 259.915 C 187.167 258.715, 187.016 258.728, 186.934 260 M 325.145 263.012 C 323.326 264.750, 322.161 266.471, 322.556 266.836 C 322.951 267.201, 323.475 266.938, 323.720 266.250 C 323.966 265.563, 324.749 265, 325.461 265 C 327.130 265, 329.298 262.393, 328.820 260.960 C 328.617 260.351, 326.963 261.274, 325.145 263.012 M 315.736 263.397 C 315.995 264.755, 316.836 266.107, 317.604 266.401 C 319.636 267.181, 319.313 264.593, 317.132 262.619 C 315.351 261.008, 315.286 261.044, 315.736 263.397 M 182.525 267.960 C 181.677 269.332, 182.428 270.362, 183.905 269.854 C 184.511 269.646, 184.588 268.940, 184.093 268.143 C 183.468 267.137, 183.063 267.090, 182.525 267.960 M 189.569 278.924 C 187.913 280.754, 187.914 280.836, 189.580 280.591 C 190.545 280.450, 191.444 279.584, 191.578 278.667 C 191.889 276.551, 191.694 276.575, 189.569 278.924 M 313.230 279.513 C 313.493 282.683, 315.525 283.463, 315.772 280.488 C 315.876 279.229, 315.301 277.946, 314.495 277.636 C 313.426 277.226, 313.083 277.736, 313.230 279.513 M 178 282 C 179.057 283.975, 181 284.752, 181 283.200 C 181 282.148, 178.828 280, 177.765 280 C 177.305 280, 177.411 280.900, 178 282 M 324.131 281.342 C 323.519 282.080, 323.351 283.052, 323.759 283.502 C 324.166 283.952, 323.938 283.997, 323.250 283.601 C 322.563 283.206, 322 283.097, 322 283.359 C 322 283.622, 321.733 284.661, 321.406 285.668 C 321.063 286.723, 321.169 287.076, 321.656 286.500 C 322.120 285.950, 323.400 285.002, 324.500 284.393 C 326.592 283.235, 327.840 280, 326.196 280 C 325.673 280, 324.744 280.604, 324.131 281.342 M 195.339 292.250 C 194.180 294.108, 194.161 297.982, 195.307 298.690 C 195.873 299.040, 195.999 298.807, 195.595 298.155 C 195.203 297.520, 195.366 297, 195.957 297 C 196.548 297, 196.929 295.650, 196.803 294 C 196.546 290.624, 196.435 290.492, 195.339 292.250 M 308.101 295.378 C 307.250 296.404, 307.344 297.040, 308.488 297.990 C 309.319 298.680, 310.034 299.077, 310.077 298.872 C 310.707 295.801, 310.697 294.931, 310.024 294.515 C 309.586 294.244, 308.720 294.632, 308.101 295.378 M 181.586 298.636 C 181.206 299.628, 181.191 300.143, 181.553 299.780 C 181.916 299.418, 183.310 300.219, 184.652 301.561 C 187.636 304.546, 189.047 304.815, 186.405 301.895 C 185.357 300.737, 184.613 299.612, 184.750 299.395 C 184.887 299.178, 184.713 299.038, 184.362 299.085 C 184.011 299.132, 183.398 298.645, 183.001 298.002 C 182.505 297.199, 182.062 297.397, 181.586 298.636 M 319.860 298.853 C 319.122 300.034, 317.926 301, 317.200 301 C 316.475 301, 316.174 301.472, 316.530 302.049 C 316.979 302.775, 317.563 302.778, 318.431 302.057 C 319.120 301.485, 319.916 301.249, 320.200 301.533 C 321.217 302.551, 322.881 299.425, 322.043 298.070 C 321.378 296.993, 320.918 297.158, 319.860 298.853 M 299.175 310.284 C 299.051 311.907, 299.386 313.760, 299.918 314.402 C 301.500 316.307, 299.865 321.652, 298.044 320.527 C 297.595 320.249, 296.704 320.652, 296.065 321.422 C 295.249 322.405, 295.222 323.019, 295.976 323.485 C 296.567 323.850, 296.926 323.573, 296.775 322.870 C 296.624 322.166, 296.950 321.532, 297.500 321.459 C 300.069 321.120, 302.065 319.613, 301.589 318.371 C 301.300 317.617, 301.568 317, 302.186 317 C 302.804 317, 302.471 316.073, 301.445 314.939 C 300.114 313.469, 299.914 312.671, 300.744 312.158 C 302.195 311.262, 301.996 307.333, 300.500 307.333 C 299.895 307.333, 299.299 308.661, 299.175 310.284 M 203 310.441 C 203 311.234, 203.520 312.203, 204.155 312.595 C 204.870 313.038, 205.038 312.870, 204.595 312.155 C 204.203 311.520, 204.359 311, 204.941 311 C 205.523 311, 206 310.550, 206 310 C 206 309.450, 205.325 309, 204.500 309 C 203.675 309, 203 309.648, 203 310.441 M 190 315.035 C 190 316.397, 191.490 316.933, 192.882 316.073 C 193.821 315.493, 193.604 315.130, 192.085 314.732 C 190.938 314.433, 190 314.569, 190 315.035 M 202.201 315 C 202.462 315.825, 202.181 316.950, 201.576 317.500 C 200.971 318.050, 200.665 318.391, 200.896 318.259 C 201.127 318.126, 201.942 318.537, 202.707 319.172 C 203.853 320.123, 204.009 319.835, 203.593 317.541 C 203.315 316.008, 202.782 314.472, 202.407 314.127 C 202.033 313.782, 201.940 314.175, 202.201 315 M 214.568 320.917 C 214.693 323.630, 213.048 327.148, 211.967 326.479 C 211.618 326.264, 211.333 326.736, 211.333 327.528 C 211.333 328.691, 211.626 328.731, 212.854 327.734 C 214.143 326.688, 214.262 326.800, 213.634 328.470 C 213.227 329.553, 213.219 330.114, 213.616 329.717 C 214.013 329.320, 215.117 329.701, 216.070 330.563 C 217.218 331.602, 218.023 331.771, 218.460 331.065 C 219.120 329.996, 218.965 329.856, 216.865 329.625 C 215.118 329.433, 213.738 325, 215.425 325 C 217.142 325, 218.258 322.277, 216.888 321.431 C 216.325 321.083, 216.076 320.243, 216.336 319.566 C 216.597 318.888, 216.278 318.333, 215.629 318.333 C 214.980 318.333, 214.502 319.496, 214.568 320.917 M 287.475 321.917 C 287.641 324.170, 289.479 324.397, 289.605 322.179 C 289.663 321.164, 289.182 320.333, 288.535 320.333 C 287.888 320.333, 287.411 321.046, 287.475 321.917 M 275.405 324.172 C 274.357 325.366, 274.093 325.996, 274.817 325.572 C 275.737 325.032, 276.038 325.346, 275.817 326.613 C 275.631 327.680, 276.189 328.569, 277.172 328.772 C 278.426 329.030, 278.709 328.602, 278.305 327.058 C 278.009 325.926, 277.314 325, 276.761 325 C 276.193 325, 276.297 324.347, 277 323.500 C 278.952 321.148, 277.533 321.746, 275.405 324.172 M 224.500 326.405 C 224.500 327.790, 225.152 328.661, 226.250 328.744 C 227.213 328.816, 228 328.245, 228 327.473 C 228 326.702, 227.213 325.649, 226.250 325.134 C 224.829 324.373, 224.500 324.612, 224.500 326.405 M 289.465 327.798 C 289.720 328.054, 289.480 329.104, 288.930 330.131 C 287.513 332.779, 288.473 332.453, 290.299 329.667 C 291.581 327.710, 291.599 327.333, 290.414 327.333 C 289.636 327.333, 289.209 327.543, 289.465 327.798 M 202.510 330.016 C 202.856 330.575, 203.563 330.770, 204.082 330.449 C 204.601 330.129, 206.324 330.514, 207.910 331.305 C 209.659 332.178, 211.328 332.407, 212.148 331.888 C 213.251 331.188, 213.224 331.006, 212 330.897 C 211.175 330.823, 210.162 330.816, 209.750 330.882 C 209.338 330.947, 209 330.550, 209 330 C 209 329.450, 207.398 329, 205.441 329 C 203.285 329, 202.130 329.401, 202.510 330.016 M 274.376 329.843 C 273.263 330.619, 273.168 333, 274.250 333 C 274.663 333, 275.402 333, 275.893 333 C 276.384 333, 277.031 332.362, 277.330 331.583 C 277.930 330.020, 275.865 328.804, 274.376 329.843 M 293.751 330.440 C 291.539 332.057, 292.566 333.108, 295.353 332.080 C 296.534 331.644, 298.175 331.509, 299 331.780 C 300.906 332.407, 300.104 331.584, 297.486 330.226 C 296.024 329.469, 294.999 329.527, 293.751 330.440 M 271.246 336.616 C 271.363 338.169, 271.931 338.594, 273.452 338.267 C 275.133 337.905, 275.231 338.018, 274 338.898 C 272.704 339.823, 272.738 339.971, 274.250 339.985 C 276.191 340.002, 276.264 339.850, 275.395 337.588 C 275.063 336.721, 274.337 336.292, 273.783 336.634 C 273.230 336.976, 272.397 336.642, 271.932 335.891 C 271.320 334.900, 271.132 335.098, 271.246 336.616 M 229.240 337.588 C 228.231 338.668, 228.358 339.121, 229.896 339.944 C 231.356 340.726, 231.940 340.599, 232.400 339.400 C 233.199 337.318, 233.191 337.287, 231.745 336.732 C 231.054 336.467, 229.927 336.852, 229.240 337.588 M 218.211 341.849 C 217.381 342.375, 218.020 342.667, 220 342.667 C 221.980 342.667, 222.619 342.375, 221.789 341.849 C 221.080 341.399, 220.275 341.031, 220 341.031 C 219.725 341.031, 218.920 341.399, 218.211 341.849 M 278.984 342.481 C 279.623 343.251, 280.808 343.627, 281.616 343.317 C 283.430 342.621, 282.950 342.068, 280.046 341.509 C 278.233 341.160, 278.037 341.339, 278.984 342.481" stroke="none" fill="#a57a41" fill-rule="evenodd"/><path d="M 250.250 113.716 C 251.762 113.945, 254.238 113.945, 255.750 113.716 C 257.262 113.487, 256.025 113.300, 253 113.300 C 249.975 113.300, 248.738 113.487, 250.250 113.716 M 245.250 118.689 C 246.213 118.941, 247.787 118.941, 248.750 118.689 C 249.713 118.438, 248.925 118.232, 247 118.232 C 245.075 118.232, 244.287 118.438, 245.250 118.689 M 251.123 139.771 C 250.343 141.227, 248.998 142, 247.242 142 L 244.555 142 246.858 143.613 C 248.593 144.828, 249.009 145.826, 248.548 147.665 C 247.995 149.868, 248.133 149.999, 249.968 149.017 C 251.438 148.230, 252.575 148.237, 254.080 149.043 C 255.934 150.035, 256.124 149.903, 255.830 147.828 C 255.593 146.159, 254.884 145.532, 253.322 145.614 C 251.755 145.696, 251.185 145.188, 251.290 143.801 C 251.427 141.986, 251.510 141.976, 252.718 143.628 C 253.693 144.963, 254.004 145.037, 254.015 143.941 C 254.028 142.727, 254.180 142.736, 254.979 144 C 255.809 145.312, 256.147 145.281, 257.678 143.750 C 259.345 142.083, 259.307 142, 256.867 142 C 255.182 142, 253.965 141.237, 253.311 139.771 L 252.316 137.541 251.123 139.771 M 236 145.500 C 236 146.325, 235.325 147, 234.500 147 C 233.675 147, 233 147.450, 233 148 C 233 148.550, 233.450 149, 234 149 C 234.550 149, 235 149.916, 235 151.035 C 235 152.650, 235.362 152.884, 236.750 152.170 C 237.713 151.675, 239.119 151.491, 239.875 151.760 C 240.725 152.063, 241.063 151.725, 240.760 150.875 C 240.491 150.119, 240.712 148.644, 241.251 147.598 C 242.057 146.038, 241.936 145.811, 240.578 146.332 C 239.576 146.716, 238.700 146.382, 238.355 145.483 C 237.615 143.555, 236 143.567, 236 145.500 M 266.998 144.500 C 266.869 145.050, 266.794 145.771, 266.832 146.102 C 266.870 146.433, 265.686 146.473, 264.201 146.191 C 261.787 145.732, 261.645 145.853, 262.862 147.326 C 263.611 148.233, 263.943 149.705, 263.601 150.599 C 263.138 151.805, 263.399 152.061, 264.615 151.594 C 265.516 151.248, 266.871 151.478, 267.627 152.105 C 268.718 153.011, 269 152.809, 269 151.122 C 269 149.955, 269.450 149, 270 149 C 270.550 149, 271 148.550, 271 148 C 271 147.450, 270.358 147, 269.573 147 C 268.789 147, 267.941 146.213, 267.689 145.250 C 267.438 144.287, 267.127 143.950, 266.998 144.500 M 148.272 168 C 148.272 170.475, 148.467 171.488, 148.706 170.250 C 148.944 169.012, 148.944 166.988, 148.706 165.750 C 148.467 164.512, 148.272 165.525, 148.272 168 M 153.402 166.395 C 153.108 167.162, 153.046 169.524, 153.265 171.645 C 153.650 175.365, 153.670 175.336, 153.832 170.823 C 153.959 167.300, 154.431 166.034, 155.750 165.689 C 157.390 165.261, 157.388 165.225, 155.719 165.116 C 154.739 165.052, 153.696 165.628, 153.402 166.395 M 351.400 196.500 C 351.401 204.750, 351.556 207.992, 351.744 203.704 C 351.932 199.417, 351.931 192.667, 351.742 188.704 C 351.552 184.742, 351.399 188.250, 351.400 196.500 M 356.411 202 C 356.411 211.625, 356.561 215.563, 356.745 210.750 C 356.928 205.937, 356.928 198.062, 356.745 193.250 C 356.561 188.438, 356.411 192.375, 356.411 202 M 266.697 205.709 C 266.805 214.244, 267.143 221.476, 267.447 221.780 C 267.751 222.084, 268 215.310, 268 206.726 C 268 198.141, 267.663 190.909, 267.250 190.654 C 266.837 190.399, 266.589 197.174, 266.697 205.709 M 287.451 227.500 C 287.451 247.300, 287.585 255.542, 287.748 245.815 C 287.912 236.088, 287.912 219.888, 287.749 209.815 C 287.586 199.742, 287.452 207.700, 287.451 227.500 M 152.411 217 C 152.411 226.625, 152.561 230.563, 152.745 225.750 C 152.928 220.937, 152.928 213.062, 152.745 208.250 C 152.561 203.438, 152.411 207.375, 152.411 217 M 147.272 223 C 147.272 225.475, 147.467 226.488, 147.706 225.250 C 147.944 224.012, 147.944 221.988, 147.706 220.750 C 147.467 219.512, 147.272 220.525, 147.272 223 M 189.120 227.121 C 187.694 228.924, 186.535 232.009, 186.228 234.815 C 185.717 239.500, 185.717 239.500, 187.799 237.649 C 188.944 236.631, 190.583 233.738, 191.440 231.221 C 194.097 223.425, 193.240 221.911, 189.120 227.121 M 312 226.795 C 312 231.428, 317.763 241.807, 318.115 237.809 C 318.179 237.089, 318.298 235.825, 318.379 235 C 318.651 232.257, 316.919 228.273, 314.445 225.948 L 312 223.651 312 226.795 M 356.365 235.500 C 356.368 241, 356.536 243.122, 356.738 240.216 C 356.941 237.311, 356.939 232.811, 356.734 230.216 C 356.528 227.622, 356.363 230, 356.365 235.500 M 314.399 231.510 C 314.680 233.425, 317 235.898, 317 234.282 C 317 232.450, 315.845 230, 314.981 230 C 314.539 230, 314.277 230.680, 314.399 231.510 M 351.336 241 C 351.336 245.125, 351.513 246.813, 351.728 244.750 C 351.944 242.688, 351.944 239.313, 351.728 237.250 C 351.513 235.188, 351.336 236.875, 351.336 241 M 178.032 241.316 C 177.997 246.560, 179.093 249.438, 181.472 250.351 C 184.233 251.411, 183.489 242.667, 180.532 239.306 L 178.063 236.500 178.032 241.316 M 322.639 240.428 C 320.898 243.085, 320.365 251, 321.927 251 C 324.098 251, 327.092 245.548, 326.799 242.131 C 326.428 237.815, 324.790 237.145, 322.639 240.428 M 179 243.441 C 179 245.668, 180.566 246.111, 180.730 243.931 C 180.810 242.869, 180.454 242, 179.938 242 C 179.422 242, 179 242.648, 179 243.441 M 188.750 243.080 C 186.804 244.214, 183.555 249.888, 184.380 250.713 C 185.641 251.974, 189.681 249.782, 191.750 246.714 C 192.988 244.878, 194 243.067, 194 242.688 C 194 241.668, 190.758 241.911, 188.750 243.080 M 311 243.423 C 311 245.737, 316.009 251, 318.211 251 C 319.996 251, 320.077 250.793, 318.872 249.308 C 317.749 247.923, 317.745 247.763, 318.850 248.429 C 320.748 249.572, 318.273 244.960, 316.087 243.282 C 313.912 241.612, 311 241.693, 311 243.423 M 350.232 258 C 350.232 259.925, 350.438 260.712, 350.689 259.750 C 350.941 258.788, 350.941 257.212, 350.689 256.250 C 350.438 255.287, 350.232 256.075, 350.232 258 M 174.463 260.750 C 175.334 265.516, 177.304 268.585, 179.936 269.273 C 181.497 269.681, 182 269.341, 182 267.874 C 182 264.675, 179.306 259.234, 177.150 258.080 C 174.034 256.413, 173.726 256.718, 174.463 260.750 M 326.180 259.743 C 323.765 262.102, 323.034 263.532, 323.498 264.993 C 323.864 266.147, 323.681 267, 323.067 267 C 322.480 267, 322 267.675, 322 268.500 C 322 270.298, 322.203 270.320, 325.385 268.870 C 328.325 267.531, 330.282 263.339, 329.827 259.357 L 329.500 256.500 326.180 259.743 M 189.268 258.813 C 188.591 259.243, 188.220 260.546, 188.444 261.708 C 188.668 262.871, 188.287 264.593, 187.598 265.535 C 186.525 267.002, 186.385 266.690, 186.627 263.375 C 186.888 259.785, 186.802 259.643, 185.454 261.441 C 183.383 264.206, 183.512 269.243, 185.644 268.823 C 187.814 268.397, 190.811 264.192, 191.398 260.750 C 191.883 257.911, 191.391 257.464, 189.268 258.813 M 313 259.444 C 313 262.815, 315.486 267.200, 318.189 268.598 L 321.161 270.134 320.864 267.317 C 320.700 265.768, 319.772 263.317, 318.802 261.871 C 316.871 258.996, 313 257.377, 313 259.444 M 326.151 262.069 C 324.777 263.544, 324.353 264.618, 325.055 264.852 C 326.598 265.366, 329.336 262.508, 328.810 260.931 C 328.526 260.078, 327.661 260.447, 326.151 262.069 M 315.736 263.397 C 315.995 264.755, 316.836 266.107, 317.604 266.401 C 319.636 267.181, 319.313 264.593, 317.132 262.619 C 315.351 261.008, 315.286 261.044, 315.736 263.397 M 217.228 264.714 L 219.956 265.129 220.252 283.814 L 220.547 302.500 220.773 283.750 L 221 265 224.477 265 L 227.955 265 228.251 283.250 L 228.548 301.500 228.774 283.296 L 229 265.091 235.750 264.742 C 239.463 264.549, 236.200 264.371, 228.500 264.346 C 220.800 264.320, 215.728 264.486, 217.228 264.714 M 270.250 264.739 C 273.413 264.937, 278.587 264.937, 281.750 264.739 C 284.913 264.541, 282.325 264.378, 276 264.378 C 269.675 264.378, 267.087 264.541, 270.250 264.739 M 295.272 269 C 295.272 271.475, 295.467 272.488, 295.706 271.250 C 295.944 270.012, 295.944 267.988, 295.706 266.750 C 295.467 265.512, 295.272 266.525, 295.272 269 M 288.420 292.500 C 288.419 303.500, 288.565 308.136, 288.745 302.803 C 288.924 297.470, 288.925 288.470, 288.746 282.803 C 288.568 277.136, 288.421 281.500, 288.420 292.500 M 189.008 276.492 C 186.694 278.954, 185.745 285.081, 187.418 286.750 C 188.989 288.317, 193 281.988, 193 277.944 C 193 273.351, 192.223 273.069, 189.008 276.492 M 311 277.066 C 311 280.500, 312.534 283.891, 314.913 285.718 C 317.683 287.844, 318.274 287.124, 317.729 282.289 C 317.367 279.076, 316.496 277.010, 314.988 275.789 C 311.875 273.268, 311 273.548, 311 277.066 M 175.507 280.750 C 177.368 285.299, 180.395 288, 183.631 288 L 186.041 288 184.034 284.066 C 181.852 279.789, 178.587 277, 175.764 277 C 174.089 277, 174.072 277.242, 175.507 280.750 M 189.569 278.924 C 187.913 280.754, 187.914 280.836, 189.580 280.591 C 190.545 280.450, 191.444 279.584, 191.578 278.667 C 191.889 276.551, 191.694 276.575, 189.569 278.924 M 313.230 279.513 C 313.493 282.683, 315.525 283.463, 315.772 280.488 C 315.876 279.229, 315.301 277.946, 314.495 277.636 C 313.426 277.226, 313.083 277.736, 313.230 279.513 M 324.358 278.772 C 322.479 280.288, 319 285.922, 319 287.450 C 319 288.194, 322.453 288.147, 324.461 287.377 C 326.048 286.768, 330 280.106, 330 278.040 C 330 276.430, 326.737 276.853, 324.358 278.772 M 178 282 C 179.057 283.975, 181 284.752, 181 283.200 C 181 282.148, 178.828 280, 177.765 280 C 177.305 280, 177.411 280.900, 178 282 M 323.073 282.635 C 321.933 284.084, 321.007 285.772, 321.015 286.385 C 321.025 287.101, 321.293 287.142, 321.765 286.500 C 322.169 285.950, 323.400 285.002, 324.500 284.393 C 326.625 283.217, 327.830 280, 326.146 280 C 325.595 280, 324.212 281.186, 323.073 282.635 M 194.773 290.750 C 192.552 293.280, 191.921 296.087, 192.820 299.435 C 193.942 303.610, 195.697 303.703, 197.612 299.688 C 198.748 297.304, 199.053 295.095, 198.587 292.611 C 197.830 288.577, 197.026 288.185, 194.773 290.750 M 254.500 293 C 256.648 295.200, 258.631 297, 258.906 297 C 259.181 297, 257.648 295.200, 255.500 293 C 253.352 290.800, 251.369 289, 251.094 289 C 250.819 289, 252.352 290.800, 254.500 293 M 306 294.042 C 306 297.692, 306.549 299.673, 307.989 301.219 C 310.470 303.882, 311.181 303.203, 311.736 297.639 C 312.098 294.014, 311.775 292.868, 309.899 291.120 C 306.569 288.018, 306 288.445, 306 294.042 M 195.339 292.250 C 194.180 294.108, 194.161 297.982, 195.307 298.690 C 195.873 299.040, 195.999 298.807, 195.595 298.155 C 195.203 297.520, 195.366 297, 195.957 297 C 196.548 297, 196.929 295.650, 196.803 294 C 196.546 290.624, 196.435 290.492, 195.339 292.250 M 308.101 295.378 C 307.250 296.404, 307.344 297.040, 308.488 297.990 C 309.319 298.680, 310.034 299.077, 310.077 298.872 C 310.707 295.801, 310.697 294.931, 310.024 294.515 C 309.586 294.244, 308.720 294.632, 308.101 295.378 M 179 296.923 C 179 298.562, 184.252 304.145, 186.651 305.058 C 187.932 305.545, 189.943 305.587, 191.121 305.151 C 193.172 304.392, 193.095 304.184, 189.286 300.180 C 186.258 296.997, 184.557 296, 182.155 296 C 180.420 296, 179 296.415, 179 296.923 M 318.729 297.092 C 317.755 297.659, 317.216 298.540, 317.531 299.050 C 317.846 299.560, 317.518 299.769, 316.802 299.515 C 315.398 299.018, 311.412 303.745, 312.402 304.735 C 312.731 305.064, 314.344 305.333, 315.987 305.333 C 319.306 305.333, 322.472 302.922, 324.628 298.752 C 326.017 296.067, 325.984 296.001, 323.276 296.030 C 321.749 296.047, 319.703 296.525, 318.729 297.092 M 181.586 298.636 C 181.206 299.628, 181.191 300.143, 181.553 299.780 C 181.916 299.418, 183.310 300.219, 184.652 301.561 C 187.636 304.546, 189.047 304.815, 186.405 301.895 C 185.357 300.737, 184.613 299.612, 184.750 299.395 C 184.887 299.178, 184.713 299.038, 184.362 299.085 C 184.011 299.132, 183.398 298.645, 183.001 298.002 C 182.505 297.199, 182.062 297.397, 181.586 298.636 M 319.860 298.853 C 319.122 300.034, 317.926 301, 317.200 301 C 316.475 301, 316.174 301.472, 316.530 302.049 C 316.979 302.775, 317.563 302.778, 318.431 302.057 C 319.120 301.485, 319.916 301.249, 320.200 301.533 C 321.217 302.551, 322.881 299.425, 322.043 298.070 C 321.378 296.993, 320.918 297.158, 319.860 298.853 M 202.568 304.206 C 200.745 306.809, 200.550 310.291, 202.070 313.131 C 202.658 314.230, 203.321 316.071, 203.543 317.221 C 204.013 319.662, 207.250 323.337, 211.500 326.255 C 213.650 327.732, 213.147 326.908, 209.723 323.345 L 204.945 318.376 206.501 314.651 C 207.734 311.701, 207.838 310.112, 207.002 307.006 C 205.673 302.072, 204.557 301.367, 202.568 304.206 M 298.161 304.547 C 296.571 308.036, 296.706 312.216, 298.518 315.636 C 300.026 318.480, 300 318.534, 294.768 323.346 C 291.871 326.012, 290.400 327.734, 291.500 327.173 C 292.600 326.613, 295.525 324.029, 298 321.432 C 300.475 318.836, 301.868 317.071, 301.095 317.510 C 300.135 318.056, 299.925 317.930, 300.432 317.111 C 300.839 316.452, 300.672 315.310, 300.061 314.574 C 298.675 312.903, 299.012 307.333, 300.500 307.333 C 302.014 307.333, 302.187 311.267, 300.713 312.178 C 299.787 312.750, 299.790 313.190, 300.728 314.128 C 303.393 316.793, 304.362 308.414, 301.917 303.845 C 300.573 301.333, 299.537 301.527, 298.161 304.547 M 203 310.441 C 203 311.234, 203.520 312.203, 204.155 312.595 C 204.870 313.038, 205.038 312.870, 204.595 312.155 C 204.203 311.520, 204.359 311, 204.941 311 C 205.523 311, 206 310.550, 206 310 C 206 309.450, 205.325 309, 204.500 309 C 203.675 309, 203 309.648, 203 310.441 M 304 313 C 302.825 314.650, 302.089 316, 302.364 316 C 302.639 316, 303.825 314.650, 305 313 C 306.175 311.350, 306.911 310, 306.636 310 C 306.361 310, 305.175 311.350, 304 313 M 200 314 C 201.175 315.650, 202.361 317, 202.636 317 C 202.911 317, 202.175 315.650, 201 314 C 199.825 312.350, 198.639 311, 198.364 311 C 198.089 311, 198.825 312.350, 200 314 M 187 313.896 C 187 315.892, 194.157 321, 196.953 321 C 200.664 321, 203.142 320.039, 202.425 318.879 C 202.115 318.378, 201.373 318.269, 200.776 318.638 C 200.134 319.035, 199.978 318.844, 200.395 318.170 C 201.464 316.441, 195.055 313.008, 190.750 313.004 C 188.688 313.002, 187 313.403, 187 313.896 M 213.035 314.934 C 210.367 319.920, 213.778 328.370, 220.407 333.193 C 225.292 336.747, 236.644 342.148, 243.250 344.061 C 245.863 344.818, 248 345.690, 248 346 C 248 346.310, 245.863 347.152, 243.250 347.870 C 233.744 350.486, 228.967 352.402, 230.236 353.091 C 230.931 353.468, 236.188 352.237, 241.917 350.356 L 252.334 346.934 258.917 348.997 C 262.538 350.132, 267.202 351.797, 269.283 352.697 C 271.877 353.819, 273.390 354.010, 274.096 353.304 C 275.007 352.393, 271.185 350.922, 256.500 346.532 C 255.414 346.207, 255.321 346.249, 265.382 342.533 L 272.263 339.991 274.733 342.460 C 278.274 346.001, 280.295 346.347, 286.656 344.498 L 292.301 342.857 290.130 340.685 C 287.797 338.352, 281.391 337.768, 275.500 339.351 C 273.666 339.844, 275.027 338.711, 279 336.437 C 286.033 332.411, 290.181 329.103, 289.526 328.042 C 289.299 327.675, 289.985 326.053, 291.050 324.438 C 293.284 321.049, 293.455 318.448, 291.657 315.208 C 290.441 313.017, 290.314 312.995, 288.762 314.710 C 285.124 318.731, 284.035 324.892, 286.522 327.379 C 287.885 328.742, 287.336 329.361, 281.272 333.292 C 274.583 337.629, 264.841 341.791, 255.907 344.129 C 251.642 345.245, 250.614 345.090, 241.524 341.957 C 236.140 340.101, 228.425 336.612, 224.379 334.204 C 218.017 330.418, 217.156 329.577, 218.011 327.979 C 219.618 324.976, 219.148 319.975, 216.918 316.368 C 214.486 312.432, 214.393 312.398, 213.035 314.934 M 305.674 315.576 C 301.194 318.620, 301.342 320.387, 306.109 320.797 C 310.005 321.133, 316.265 317.576, 316.816 314.715 C 317.357 311.906, 310.269 312.453, 305.674 315.576 M 190 315.035 C 190 316.397, 191.490 316.933, 192.882 316.073 C 193.821 315.493, 193.604 315.130, 192.085 314.732 C 190.938 314.433, 190 314.569, 190 315.035 M 214.469 321.667 C 214.451 323.569, 214.942 325, 215.612 325 C 217.187 325, 218.178 322.228, 216.888 321.431 C 216.325 321.083, 216.076 320.243, 216.336 319.566 C 216.597 318.888, 216.290 318.334, 215.655 318.334 C 215.019 318.334, 214.486 319.833, 214.469 321.667 M 287.475 321.917 C 287.641 324.170, 289.479 324.397, 289.605 322.179 C 289.663 321.164, 289.182 320.333, 288.535 320.333 C 287.888 320.333, 287.411 321.046, 287.475 321.917 M 224.633 324.328 C 223.678 328.132, 224.760 331.330, 227.990 334.250 C 232.259 338.109, 233.372 337.807, 232.722 332.963 C 232.209 329.139, 227.869 322, 226.058 322 C 225.595 322, 224.954 323.047, 224.633 324.328 M 275.753 324.748 C 272.570 328.084, 270.739 332.601, 271.542 335.132 C 272.380 337.772, 273.765 337.464, 277.099 333.894 C 279.040 331.816, 279.995 329.748, 279.985 327.644 C 279.959 322.449, 278.741 321.615, 275.753 324.748 M 225.154 326.552 C 225.345 327.532, 226.105 328.536, 226.846 328.782 C 227.706 329.069, 228.066 328.588, 227.846 327.448 C 227.655 326.468, 226.895 325.464, 226.154 325.218 C 225.294 324.931, 224.934 325.412, 225.154 326.552 M 275.676 326.402 C 275.059 328.011, 275.781 329, 277.573 329 C 278.320 329, 278.605 328.206, 278.290 327 C 277.681 324.674, 276.447 324.392, 275.676 326.402 M 199.556 328.335 C 197.854 329.580, 197.973 329.820, 201.324 331.891 C 206.596 335.149, 211.021 335.614, 213.978 333.219 L 216.410 331.250 212.245 329.125 C 207.501 326.705, 202.234 326.377, 199.556 328.335 M 293.060 328.752 C 288.552 331.042, 288.251 332.447, 291.943 333.976 C 295.416 335.415, 298.085 334.914, 302.958 331.909 C 306.245 329.882, 306.322 329.708, 304.517 328.388 C 301.930 326.497, 297.201 326.647, 293.060 328.752 M 202.510 330.016 C 202.856 330.575, 203.563 330.770, 204.082 330.449 C 204.601 330.129, 206.324 330.514, 207.910 331.305 C 209.659 332.178, 211.328 332.407, 212.148 331.888 C 213.251 331.188, 213.224 331.006, 212 330.897 C 211.175 330.823, 210.162 330.816, 209.750 330.882 C 209.338 330.947, 209 330.550, 209 330 C 209 329.450, 207.398 329, 205.441 329 C 203.285 329, 202.130 329.401, 202.510 330.016 M 274.376 329.843 C 273.263 330.619, 273.168 333, 274.250 333 C 274.663 333, 275.402 333, 275.893 333 C 276.384 333, 277.031 332.362, 277.330 331.583 C 277.930 330.020, 275.865 328.804, 274.376 329.843 M 293.751 330.440 C 291.539 332.057, 292.566 333.108, 295.353 332.080 C 296.534 331.644, 298.175 331.509, 299 331.780 C 300.906 332.407, 300.104 331.584, 297.486 330.226 C 296.024 329.469, 294.999 329.527, 293.751 330.440 M 183.958 338.250 C 186.410 340.863, 188.548 343, 188.708 343 C 189.459 343, 188.665 342.102, 184.250 337.958 L 179.500 333.500 183.958 338.250 M 180.500 342 C 183.209 344.750, 185.650 347, 185.925 347 C 186.200 347, 184.209 344.750, 181.500 342 C 178.791 339.250, 176.350 337, 176.075 337 C 175.800 337, 177.791 339.250, 180.500 342 M 215.750 339.572 C 214.238 340.393, 213 341.445, 213 341.911 C 213 342.889, 217.154 344.618, 221.500 345.448 C 224.594 346.038, 231 343.062, 231 341.034 C 231 339.712, 226.439 338.610, 224.902 339.560 C 224.132 340.037, 223.950 339.889, 224.405 339.155 C 225.459 337.449, 219.098 337.756, 215.750 339.572 M 218.211 341.849 C 217.381 342.375, 218.020 342.667, 220 342.667 C 221.980 342.667, 222.619 342.375, 221.789 341.849 C 221.080 341.399, 220.275 341.031, 220 341.031 C 219.725 341.031, 218.920 341.399, 218.211 341.849 M 278.984 342.481 C 279.623 343.251, 280.808 343.627, 281.616 343.317 C 283.430 342.621, 282.950 342.068, 280.046 341.509 C 278.233 341.160, 278.037 341.339, 278.984 342.481 M 245.336 358.567 C 245.005 359.429, 245.154 360.554, 245.667 361.067 C 246.244 361.644, 246.600 361.047, 246.600 359.500 C 246.600 356.626, 246.195 356.328, 245.336 358.567 M 249 360.441 C 249 362.398, 249.450 364, 250 364 C 250.550 364, 251 362.677, 251 361.059 C 251 359.441, 250.550 357.840, 250 357.500 C 249.405 357.132, 249 358.323, 249 360.441 M 253.336 358.567 C 253.005 359.429, 253.154 360.554, 253.667 361.067 C 254.244 361.644, 254.600 361.047, 254.600 359.500 C 254.600 356.626, 254.195 356.328, 253.336 358.567 M 257.015 360.250 C 257.007 362.313, 257.450 364, 258 364 C 259.274 364, 259.274 359.971, 258 358 C 257.279 356.884, 257.027 357.461, 257.015 360.250 M 261.510 358.984 C 261.165 359.543, 261.327 360, 261.871 360 C 262.416 360, 263.056 361.012, 263.294 362.250 C 263.674 364.221, 263.745 364.166, 263.864 361.809 C 264.007 358.975, 262.577 357.258, 261.510 358.984 M 241.232 362 C 241.232 363.925, 241.438 364.712, 241.689 363.750 C 241.941 362.788, 241.941 361.212, 241.689 360.250 C 241.438 359.288, 241.232 360.075, 241.232 362" stroke="none" fill="#9d784a" fill-rule="evenodd"/><path d="M 241.796 119.538 C 241.569 119.764, 239.610 120.231, 237.442 120.575 C 235.274 120.919, 232.731 121.611, 231.791 122.114 C 230.850 122.616, 229.725 122.948, 229.291 122.852 C 227.659 122.490, 219.044 125.263, 219.502 126.003 C 219.764 126.427, 219.421 126.754, 218.739 126.730 C 214.775 126.587, 212.941 127.095, 213.595 128.155 C 214.018 128.838, 213.872 129.039, 213.238 128.647 C 212.650 128.283, 210.893 128.471, 209.334 129.063 C 207.775 129.656, 206.390 130.115, 206.255 130.083 C 206.120 130.051, 203.645 130.892, 200.755 131.951 C 196.733 133.426, 185.658 136, 183.336 136 C 183.173 136, 183.195 137.339, 183.386 138.976 C 183.585 140.687, 183.327 141.702, 182.780 141.364 C 182.256 141.040, 181.916 141.838, 182.024 143.138 C 182.353 147.080, 182.057 148.153, 180.845 147.405 C 180.182 146.994, 179.961 147.127, 180.325 147.716 C 180.673 148.280, 180.077 149.758, 179 151 C 177.923 152.242, 177.265 153.619, 177.537 154.060 C 177.810 154.501, 177.506 155.187, 176.862 155.585 C 176.086 156.065, 175.936 155.835, 176.418 154.905 C 176.818 154.132, 176.083 154.738, 174.785 156.250 C 173.487 157.762, 171.879 159, 171.212 159 C 170.001 159, 169.622 160.176, 169.923 163 C 170.051 164.195, 169.901 164.230, 169.187 163.176 C 168.448 162.084, 167.672 162.110, 164.767 163.324 C 162.830 164.134, 160.975 165.231, 160.646 165.764 C 160.317 166.296, 158.842 166.501, 157.369 166.220 C 155.024 165.771, 154.760 165.975, 155.252 167.855 C 155.561 169.036, 155.470 169.791, 155.051 169.532 C 154.168 168.986, 152.910 200.341, 153.034 219.772 C 153.098 229.724, 153.417 232.877, 154.310 232.375 C 155.134 231.912, 155.115 232.121, 154.250 233.053 C 152.929 234.476, 152.562 238.229, 153.638 239.305 C 153.989 239.656, 154.187 244.006, 154.078 248.972 C 153.969 253.937, 154.244 258.001, 154.690 258.003 C 155.135 258.004, 155.546 260.592, 155.602 263.753 C 155.697 269.082, 156.256 273.812, 157.522 280 C 157.803 281.375, 158.244 283.625, 158.500 285 C 159.557 290.665, 160.268 293.555, 160.839 294.500 C 161.172 295.050, 161.534 296.098, 161.645 296.828 C 161.755 297.559, 162.173 298.909, 162.573 299.828 C 162.973 300.748, 163.460 302.318, 163.654 303.318 C 164.308 306.676, 172.045 322, 173.087 322 C 173.654 322, 173.891 322.368, 173.613 322.818 C 173.334 323.268, 174.181 324.794, 175.494 326.210 C 176.807 327.626, 177.571 329.130, 177.191 329.552 C 176.811 329.974, 177.265 330.045, 178.199 329.710 C 179.407 329.278, 179.737 329.521, 179.342 330.551 C 179.036 331.348, 179.212 332, 179.732 332 C 180.253 332, 181.212 333.169, 181.863 334.598 C 182.642 336.309, 183.569 336.996, 184.575 336.610 C 185.497 336.256, 185.846 336.441, 185.454 337.074 C 185.097 337.653, 185.593 338.998, 186.557 340.063 C 188.449 342.154, 190.574 342.738, 189.405 340.845 C 188.959 340.124, 189.131 339.963, 189.862 340.415 C 190.506 340.813, 190.811 341.497, 190.540 341.935 C 190.269 342.374, 191.014 343.580, 192.195 344.616 C 193.579 345.830, 194.044 345.966, 193.500 345 C 192.676 343.534, 194.309 344.735, 199.893 349.696 C 201.252 350.905, 202.685 351.695, 203.077 351.452 C 203.470 351.210, 204.066 351.731, 204.404 352.609 C 204.764 353.550, 205.652 353.964, 206.560 353.615 C 207.567 353.229, 207.855 353.426, 207.388 354.181 C 206.893 354.982, 207.254 355.117, 208.555 354.617 C 209.591 354.220, 210.106 354.228, 209.698 354.635 C 208.830 355.503, 217.292 361, 219.497 361 C 220.324 361, 221 361.399, 221 361.886 C 221 362.373, 222.676 363.568, 224.725 364.540 C 226.774 365.512, 229.056 366.913, 229.797 367.654 C 230.537 368.394, 231.716 369, 232.416 369 C 233.117 369, 234.495 369.889, 235.479 370.976 C 236.462 372.063, 237.657 372.712, 238.134 372.417 C 238.610 372.123, 239 372.318, 239 372.852 C 239 373.385, 240.912 374.747, 243.250 375.877 C 248.611 378.471, 257.947 378.583, 261.247 376.093 C 262.486 375.158, 267.637 371.971, 272.694 369.011 C 277.751 366.050, 281.681 363.293, 281.428 362.883 C 281.175 362.473, 281.494 361.813, 282.138 361.415 C 282.869 360.963, 283.041 361.124, 282.595 361.845 C 281.577 363.493, 282.776 363.274, 285.850 361.250 C 290.878 357.941, 292.506 356.993, 294.980 355.935 C 296.343 355.352, 297.693 354.555, 297.980 354.164 C 298.266 353.774, 299.797 352.627, 301.382 351.617 C 303.288 350.403, 303.867 349.536, 303.093 349.057 C 302.448 348.659, 303.359 348.333, 305.116 348.333 C 307.187 348.333, 308.929 347.571, 310.066 346.167 C 311.031 344.975, 312.212 344, 312.691 344 C 314.023 344, 323.964 333.297, 323.273 332.606 C 322.940 332.273, 323.186 332, 323.821 332 C 324.456 332, 326.115 330.194, 327.508 327.988 C 328.901 325.781, 330.710 323.194, 331.528 322.238 C 332.347 321.282, 333.045 320.050, 333.079 319.500 C 333.114 318.950, 333.753 317.825, 334.500 317 C 336.390 314.910, 339.978 306.311, 339.258 305.592 C 338.933 305.266, 339.218 305, 339.892 305 C 340.566 305, 340.859 304.581, 340.543 304.069 C 340.226 303.557, 340.425 302.856, 340.984 302.510 C 341.543 302.165, 342 300.874, 342 299.641 C 342 298.408, 342.478 296.922, 343.061 296.339 C 343.645 295.755, 344.208 293.642, 344.311 291.643 C 344.415 289.644, 344.739 288.007, 345.032 288.004 C 345.600 288, 346.203 284.216, 346.336 279.820 C 346.381 278.346, 346.723 277.329, 347.095 277.559 C 347.743 277.959, 348.490 273.351, 349.761 261.114 C 350.082 258.026, 350.489 237.299, 350.665 215.054 C 350.913 183.635, 350.708 174.433, 349.742 173.820 C 348.755 173.192, 348.756 173.027, 349.750 173.015 C 351.694 172.992, 351.221 171.010, 349.250 170.921 C 348.205 170.874, 348.003 170.639, 348.750 170.338 C 349.438 170.060, 350 169.067, 350 168.129 C 350 166.546, 348.803 166.077, 343.798 165.700 C 342.861 165.629, 342.306 165.360, 342.564 165.102 C 342.948 164.719, 337.805 161.953, 336 161.572 C 335.264 161.417, 330.954 157.765, 329.153 155.771 C 327.960 154.450, 327.382 154.332, 326.702 155.271 C 326.081 156.127, 325.971 155.999, 326.337 154.848 C 326.626 153.939, 326.556 152.889, 326.181 152.514 C 325.806 152.140, 325.480 151.308, 325.455 150.667 C 325.430 150.025, 324.883 149.607, 324.241 149.738 C 323.598 149.869, 323.315 149.342, 323.613 148.566 C 323.911 147.791, 323.577 146.109, 322.872 144.828 C 322.167 143.548, 321.437 141.375, 321.250 140 C 320.845 137.024, 318.286 134.847, 315.505 135.112 C 314.402 135.217, 312.375 134.840, 311 134.275 C 309.625 133.710, 305.913 132.670, 302.750 131.965 C 299.587 131.259, 297 130.277, 297 129.782 C 297 129.287, 296.581 129.141, 296.069 129.457 C 295.557 129.774, 294.856 129.575, 294.510 129.016 C 293.597 127.539, 291.747 127.766, 292.602 129.250 C 292.998 129.938, 292.148 129.431, 290.712 128.123 C 289.152 126.703, 287.457 125.994, 286.499 126.362 C 285.617 126.700, 285.136 126.588, 285.430 126.113 C 285.896 125.359, 282.046 123.952, 275.500 122.483 C 274.400 122.236, 270.779 121.427, 267.454 120.684 C 261.887 119.440, 242.748 118.585, 241.796 119.538 M 318.250 129.689 C 319.212 129.941, 320.788 129.941, 321.750 129.689 C 322.712 129.438, 321.925 129.232, 320 129.232 C 318.075 129.232, 317.288 129.438, 318.250 129.689 M 250.605 138.170 C 251.088 138.952, 250.787 139.132, 249.696 138.714 C 248.798 138.369, 247.755 138.587, 247.378 139.198 C 246.962 139.871, 247.146 140.028, 247.845 139.595 C 248.480 139.203, 249 139.310, 249 139.834 C 249 140.790, 246.686 142, 244.859 142 C 244.322 142, 244.114 141.625, 244.397 141.167 C 244.680 140.708, 244.207 140.333, 243.346 140.333 C 242.259 140.333, 242.655 141.123, 244.640 142.917 C 247.671 145.655, 248.901 149, 246.877 149 C 246.211 149, 246.004 149.338, 246.416 149.750 C 247.485 150.819, 252 150.770, 252 149.689 C 252 149.193, 252.675 149.059, 253.500 149.393 C 254.325 149.727, 255.683 150.276, 256.519 150.614 C 257.806 151.135, 257.872 150.793, 256.949 148.366 C 256.012 145.903, 256.143 145.317, 257.885 144.161 C 259.476 143.104, 259.652 142.543, 258.709 141.534 C 258.050 140.828, 256.980 140.454, 256.332 140.703 C 255.684 140.952, 254.653 140.220, 254.042 139.078 C 253.430 137.935, 252.244 137, 251.406 137 C 250.497 137, 250.174 137.472, 250.605 138.170 M 266 138.609 C 266 139.154, 266.446 140.046, 266.991 140.591 C 268.669 142.269, 265.156 146.263, 262.455 145.747 C 260.257 145.327, 260.223 145.411, 261.687 147.646 C 262.530 148.932, 262.977 150.619, 262.679 151.394 C 262.356 152.236, 262.916 153.006, 264.071 153.308 C 265.216 153.608, 265.749 153.404, 265.381 152.807 C 265.009 152.205, 265.584 152.242, 266.814 152.900 C 269.641 154.414, 270 154.306, 270 151.941 C 270 150.809, 270.375 150.114, 270.833 150.397 C 272.500 151.427, 271.615 147.615, 269.756 145.756 C 268.705 144.705, 268.055 143.299, 268.311 142.631 C 268.568 141.963, 268.153 140.562, 267.389 139.517 C 266.625 138.472, 266 138.064, 266 138.609 M 236 143.255 C 236 144.152, 234.988 145.609, 233.750 146.493 C 231.668 147.979, 231.627 148.194, 233.202 149.375 C 234.362 150.244, 234.710 151.422, 234.295 153.075 C 233.714 155.387, 233.775 155.422, 235.593 153.834 C 236.769 152.807, 238.491 152.360, 240.083 152.668 C 241.960 153.032, 242.667 152.748, 242.667 151.629 C 242.667 150.781, 242.292 150.320, 241.833 150.603 C 240.707 151.299, 240.785 150.271, 242.035 147.934 C 242.844 146.423, 242.744 146, 241.574 146 C 240.751 146, 239.160 145.015, 238.039 143.811 C 236.381 142.032, 236 141.928, 236 143.255 M 261.074 170.411 C 260.260 171.392, 260.227 172.022, 260.968 172.480 C 261.553 172.842, 261.769 173.564, 261.447 174.085 C 261.125 174.606, 260.373 174.731, 259.776 174.362 C 259.123 173.958, 258.979 174.157, 259.415 174.862 C 259.813 175.506, 260.670 175.723, 261.319 175.344 C 261.969 174.966, 261.712 175.556, 260.750 176.657 C 258.761 178.931, 258.428 180.471, 260.158 179.403 C 260.969 178.901, 261.123 179.406, 260.671 181.094 C 260.317 182.417, 260.021 183.864, 260.014 184.309 C 260.006 184.754, 259.438 184.817, 258.750 184.449 C 258.063 184.081, 258.850 184.987, 260.500 186.463 C 262.150 187.938, 262.868 188.818, 262.095 188.418 C 261.165 187.936, 260.935 188.086, 261.415 188.862 C 261.813 189.506, 262.521 189.796, 262.988 189.507 C 263.456 189.218, 264.550 189.693, 265.419 190.562 C 266.717 191.860, 266.991 194.684, 266.951 206.321 L 266.902 220.500 263.417 213.710 C 261.500 209.975, 260.242 206.418, 260.620 205.805 C 260.999 205.192, 260.863 204.967, 260.318 205.303 C 259.382 205.882, 253.521 194.976, 253.482 192.582 C 253.471 191.967, 252.424 190.424, 251.154 189.154 C 249.881 187.881, 249.099 186.184, 249.411 185.371 C 249.722 184.560, 249.579 184.142, 249.093 184.442 C 247.957 185.145, 246.787 182.154, 247.651 180.755 C 248.013 180.170, 247.864 179.966, 247.319 180.303 C 246.775 180.639, 245.614 179.415, 244.740 177.582 C 243.514 175.010, 243.419 173.946, 244.326 172.923 C 245.266 171.861, 245.201 171.798, 244 172.606 C 242.641 173.521, 222.717 172.899, 214.778 171.694 C 213.281 171.467, 212.271 171.629, 212.534 172.055 C 212.797 172.481, 212.486 173.005, 211.844 173.219 C 210.329 173.724, 209.778 176.348, 209.934 182.327 C 210.025 185.815, 209.731 186.952, 208.875 186.423 C 208.125 185.959, 207.956 186.120, 208.415 186.862 C 208.813 187.506, 209.445 187.843, 209.820 187.611 C 210.194 187.380, 211.716 188.160, 213.200 189.345 L 215.900 191.500 216.200 216.251 C 216.394 232.278, 216.148 241.007, 215.500 241.016 C 214.950 241.024, 215.125 241.426, 215.888 241.910 C 216.976 242.599, 216.390 243.712, 213.178 247.055 C 210.924 249.401, 209.261 251.613, 209.482 251.971 C 209.703 252.328, 209.990 254.956, 210.121 257.811 C 210.251 260.665, 210.727 263, 211.179 263 C 211.630 263, 212 263.498, 212 264.107 C 212 264.716, 211.348 264.964, 210.551 264.658 C 209.533 264.267, 209.286 264.582, 209.721 265.715 C 210.086 266.666, 209.928 267.074, 209.337 266.708 C 208.785 266.367, 208.333 266.723, 208.333 267.500 C 208.333 268.277, 208.708 268.680, 209.167 268.397 C 209.811 267.999, 210.426 287.695, 210.349 306.246 C 210.345 307.206, 210.539 307.795, 210.779 307.555 C 211.019 307.315, 212.399 308.217, 213.847 309.559 C 216.962 312.448, 221.353 313.445, 227.228 312.599 C 229.578 312.260, 232.266 311.891, 233.202 311.778 C 234.139 311.664, 234.709 311.376, 234.471 311.137 C 234.232 310.898, 234.905 309.950, 235.966 309.029 C 238.602 306.744, 238.863 304.604, 239.080 283.517 C 239.248 267.155, 239.454 265.115, 240.975 264.717 C 242.187 264.400, 242.953 262.569, 243.624 258.385 C 244.623 252.162, 243.750 248.795, 240.977 248.168 C 237.660 247.418, 237.213 245.844, 237.067 234.382 C 236.949 225.185, 237.182 222.990, 238.209 223.608 C 239.203 224.205, 239.243 224.052, 238.386 222.942 C 237.389 221.651, 236.847 218, 237.653 218 C 238.013 218, 241.165 225.337, 241.001 225.794 C 240.943 225.955, 242.068 227.481, 243.501 229.184 C 244.934 230.887, 245.872 232.892, 245.585 233.640 C 245.298 234.388, 245.522 235, 246.082 235 C 247.044 235, 249.811 240.465, 249.824 242.388 C 249.827 242.877, 250.430 243.657, 251.165 244.123 C 252.271 244.824, 252.267 244.972, 251.139 244.985 C 250.289 244.994, 250.590 245.657, 251.941 246.751 C 253.131 247.715, 254.206 249.196, 254.330 250.042 C 254.454 250.889, 255.610 253.364, 256.898 255.541 C 258.186 257.719, 259.312 259.950, 259.398 260.500 C 259.485 261.050, 259.854 261.976, 260.218 262.558 C 260.638 263.229, 259.347 263.694, 256.690 263.830 C 252.119 264.063, 247 265.766, 247 267.054 C 247 267.500, 246.093 268.153, 244.985 268.505 C 243.877 268.856, 243.186 269.492, 243.450 269.918 C 243.713 270.344, 243.564 272.995, 243.119 275.809 C 242.581 279.213, 242.650 280.716, 243.325 280.299 C 243.928 279.927, 244.091 280.321, 243.726 281.271 C 243.389 282.151, 243.562 283.021, 244.111 283.204 C 244.660 283.387, 245.240 284.428, 245.400 285.518 C 245.560 286.608, 246.323 287.520, 247.095 287.545 C 247.868 287.570, 248.388 288.133, 248.250 288.795 C 248.113 289.458, 248.347 289.887, 248.770 289.750 C 250.103 289.317, 258.408 296.925, 257.545 297.788 C 257.284 298.049, 257.473 299.016, 257.965 299.935 C 258.458 300.855, 258.487 302.212, 258.031 302.950 C 257.045 304.545, 253.837 303.586, 254.062 301.763 C 254.147 301.069, 253.892 299.494, 253.496 298.265 C 252.863 296.303, 252.210 296.073, 248.155 296.378 C 243.884 296.700, 243.487 296.963, 242.894 299.863 C 242.531 301.641, 242.667 303, 243.210 303 C 243.736 303, 243.986 303.541, 243.766 304.202 C 243.245 305.765, 246.763 309.807, 250.200 311.595 C 251.686 312.368, 254.431 313, 256.301 313 C 260.397 313, 266 311.176, 266 309.843 C 266 309.315, 266.461 309.167, 267.025 309.515 C 267.588 309.864, 267.967 309.778, 267.866 309.324 C 267.542 307.868, 269.181 304.994, 270.036 305.522 C 270.490 305.803, 271.187 305.506, 271.585 304.862 C 272.037 304.131, 271.876 303.959, 271.155 304.405 C 270.350 304.902, 269.999 303.811, 269.996 300.809 C 269.992 295.518, 267.528 291.270, 260.558 284.533 C 256.444 280.556, 255.339 278.818, 255.292 276.250 C 255.255 274.200, 255.720 273, 256.549 273 C 257.938 273, 259.265 275.965, 258.785 277.993 C 258.628 278.652, 259.512 279.584, 260.750 280.064 C 262.039 280.563, 263 280.560, 263 280.056 C 263 279.572, 264.136 279.301, 265.524 279.453 C 266.913 279.606, 268.353 279.238, 268.724 278.637 C 269.627 277.177, 269.582 273.751, 268.641 272.228 C 268.224 271.553, 268.246 270.993, 268.691 270.985 C 269.136 270.976, 269.050 270.639, 268.500 270.235 C 267.950 269.831, 266.725 268.579, 265.778 267.452 C 264.099 265.455, 264.142 265.399, 267.528 265.171 C 270.955 264.940, 271 264.989, 271 268.969 C 271 272.909, 271.079 273, 274.500 273 C 277.204 273, 278 273.410, 278 274.800 C 278 275.790, 277.438 277.206, 276.750 277.947 C 275.750 279.024, 275.750 279.152, 276.750 278.588 C 277.729 278.035, 278 281.584, 278 294.941 C 278 312.851, 278.004 312.864, 282.355 312.083 C 282.826 311.999, 283.925 312.508, 284.797 313.215 C 286.008 314.196, 286.206 314.204, 285.633 313.250 C 285.129 312.412, 285.560 312, 286.941 312 C 289.598 312, 289.584 313.617, 286.914 315.046 C 285.767 315.660, 285.040 316.373, 285.298 316.631 C 285.556 316.889, 285.403 318.712, 284.959 320.683 C 284.496 322.736, 284.562 325.348, 285.114 326.800 C 286.114 329.430, 284.636 331.511, 282.643 330.280 C 282.119 329.956, 281.982 330.161, 282.337 330.736 C 282.692 331.311, 281.836 332.533, 280.435 333.451 L 277.886 335.121 279.651 331.810 C 281.877 327.637, 281.920 327.098, 280.307 323.784 C 278.722 320.530, 277.396 320.919, 273.750 325.709 C 271.627 328.499, 271 330.425, 271 334.161 C 271 339.122, 270.348 339.941, 268.141 337.750 C 267.132 336.749, 266.998 336.807, 267.469 338.044 C 267.924 339.240, 266.465 340.086, 260.995 341.794 C 257.112 343.007, 253.302 344, 252.529 344 C 249.759 344, 235.083 338.805, 233.931 337.417 C 233.145 336.470, 233.111 336, 233.830 336 C 235.255 336, 232.694 327.424, 230.567 325.074 C 229.703 324.119, 229.334 322.965, 229.748 322.509 C 230.162 322.052, 229.969 321.984, 229.319 322.356 C 228.670 322.728, 227.856 322.575, 227.510 322.016 C 226.427 320.264, 225.231 320.898, 224.242 323.750 C 223.173 326.834, 223.217 329.924, 224.356 331.768 C 225.383 333.428, 224.416 333.319, 221.566 331.452 C 219.571 330.144, 219.283 329.306, 219.718 326.068 C 220.001 323.959, 219.638 320.493, 218.911 318.367 C 218.184 316.240, 217.693 314.129, 217.820 313.676 C 217.946 313.222, 217.585 313.138, 217.018 313.489 C 216.450 313.840, 215.716 313.424, 215.386 312.564 C 214.885 311.258, 214.493 311.375, 212.994 313.281 C 210.965 315.860, 210.179 319.886, 211.340 321.750 C 212.665 323.879, 210.467 323.126, 208.146 320.655 C 206.806 319.229, 206.191 317.665, 206.577 316.661 C 206.925 315.754, 207.500 315.192, 207.855 315.412 C 208.880 316.047, 208.290 307.788, 207.089 304.685 C 205.716 301.135, 205.724 300.712, 207.155 301.595 C 207.856 302.029, 208.038 301.871, 207.619 301.192 C 206.579 299.510, 202.774 301.586, 200.895 304.860 C 199.844 306.692, 199.586 308.351, 200.125 309.808 C 201.443 313.371, 200.201 312.314, 197.999 307.998 C 196.153 304.380, 196.100 303.777, 197.446 301.722 C 198.265 300.472, 199.141 297.350, 199.392 294.785 C 200.175 286.793, 195.609 285.950, 192.430 293.500 L 191.167 296.500 190.489 293.807 C 190.117 292.326, 190.149 290.569, 190.560 289.902 C 191.037 289.132, 190.889 288.950, 190.155 289.405 C 188.035 290.714, 188.966 287.926, 191.895 284.191 C 193.736 281.844, 194.676 279.590, 194.478 278 C 194.307 276.625, 194.129 274.961, 194.083 274.302 C 193.983 272.861, 188 274.628, 188 276.098 C 188 276.594, 187.523 277, 186.941 277 C 186.359 277, 186.160 276.550, 186.500 276 C 186.840 275.450, 186.641 275, 186.059 275 C 185.477 275, 185 273.833, 185 272.406 C 185 270.637, 185.648 269.643, 187.040 269.279 C 189.098 268.741, 192 263.284, 192 259.951 C 192 257.137, 188.753 257.135, 186.069 259.947 L 183.638 262.494 184.305 259.997 C 184.672 258.624, 184.979 256.346, 184.986 254.935 C 184.997 253.021, 185.843 251.968, 188.327 250.784 C 191.745 249.154, 195.552 243.153, 194.094 241.695 C 192.924 240.524, 188.529 241.858, 186.099 244.123 C 184.122 245.965, 184 245.973, 184 244.261 C 184 243.262, 183.299 241.445, 182.443 240.223 C 181.055 238.241, 181.220 237.625, 183.083 237.826 C 183.404 237.861, 183.667 237.246, 183.667 236.460 C 183.667 235.317, 183.373 235.275, 182.198 236.251 C 181.390 236.921, 180.002 237.477, 179.114 237.485 C 177.872 237.497, 177.430 238.722, 177.196 242.796 C 176.937 247.312, 177.232 248.375, 179.196 250.013 C 180.463 251.069, 182.098 251.948, 182.829 251.967 C 183.793 251.991, 183.972 252.852, 183.479 255.094 C 183.106 256.795, 182.800 259.817, 182.800 261.808 L 182.800 265.430 181.475 262.280 C 180.100 259.007, 174.560 255.284, 173.535 256.943 C 172.476 258.657, 174.215 265.885, 176.097 267.588 C 177.118 268.511, 177.770 269.563, 177.547 269.925 C 177.323 270.286, 178.684 270.402, 180.570 270.182 C 183.222 269.872, 184 270.146, 184 271.391 C 184 272.276, 183.494 272.887, 182.875 272.750 C 182.256 272.612, 181.547 273.175, 181.299 274 C 180.905 275.311, 180.977 275.314, 181.870 274.028 C 183.079 272.288, 183.374 272.860, 184.898 279.886 L 185.848 284.272 182.945 280.750 C 181.348 278.812, 178.889 276.938, 177.480 276.584 C 175.912 276.191, 175.157 275.468, 175.533 274.721 C 175.872 274.049, 175.480 274.318, 174.664 275.319 C 171.192 279.572, 178.157 289.449, 184.183 288.817 C 186.819 288.540, 187.342 288.930, 188.455 292.001 C 189.153 293.925, 190.267 296.850, 190.931 298.500 L 192.137 301.500 189.145 298.636 C 187.022 296.604, 184.793 295.618, 181.477 295.245 L 176.803 294.718 178.312 297.609 C 180.600 301.990, 185.148 305.792, 188.500 306.124 C 190.150 306.288, 192.400 307.102, 193.500 307.934 C 194.996 309.066, 195.185 309.088, 194.250 308.023 C 193.563 307.241, 193 306.185, 193 305.678 C 193 304.106, 195.885 307.058, 196.580 309.340 C 196.941 310.528, 197.946 312.307, 198.812 313.293 C 200.255 314.935, 200.245 315.031, 198.694 314.436 C 197.762 314.079, 197 313.423, 197 312.980 C 197 311.972, 185.379 312.225, 184.583 313.250 C 184.262 313.663, 184.297 313.778, 184.660 313.506 C 185.529 312.857, 188.579 317.210, 188.159 318.500 C 187.980 319.050, 188.132 319.201, 188.498 318.835 C 188.864 318.470, 190.713 319.223, 192.607 320.508 C 195.975 322.794, 196.798 322.823, 202.568 320.863 C 203.155 320.663, 205.308 321.962, 207.352 323.750 C 209.610 325.724, 210.467 327, 209.535 327 C 208.691 327, 208 326.597, 208 326.105 C 208 325.599, 206.480 325.553, 204.500 326 C 201.162 326.753, 200.583 326.539, 200.906 324.676 C 200.985 324.222, 200.558 324.155, 199.958 324.526 C 199.358 324.897, 199.126 325.459, 199.443 325.776 C 199.759 326.093, 199.002 327.435, 197.759 328.758 C 196.517 330.082, 195.950 331.028, 196.500 330.860 C 197.050 330.693, 199.655 331.833, 202.288 333.395 C 207.548 336.515, 211.717 336.471, 215.266 333.259 C 217.061 331.635, 217.217 331.637, 218.143 333.292 C 218.682 334.254, 219.445 334.843, 219.839 334.599 C 220.233 334.356, 221.588 334.935, 222.848 335.886 L 225.141 337.615 221.820 337.265 C 218.549 336.921, 212 339.965, 212 341.830 C 212 344.138, 216.176 346.211, 221.160 346.377 C 225.624 346.525, 226.920 346.131, 229.547 343.825 C 231.687 341.946, 233.330 341.274, 234.827 341.665 C 236.022 341.978, 237 342.631, 237 343.117 C 237 343.602, 237.338 343.914, 237.750 343.810 C 239.203 343.441, 245 345.169, 245 345.971 C 245 346.418, 243.762 347.070, 242.250 347.420 C 237.096 348.614, 228 352.241, 228 353.103 C 228 354.807, 232.815 355.168, 235.156 353.639 C 236.445 352.797, 238.894 351.865, 240.598 351.567 C 242.302 351.269, 245.279 350.363, 247.215 349.555 C 249.151 348.746, 252.031 348.306, 253.617 348.578 C 257.627 349.265, 263.287 351.092, 264.592 352.122 C 265.193 352.595, 265.980 352.687, 266.342 352.325 C 266.704 351.963, 267 352.095, 267 352.619 C 267 353.143, 267.788 353.652, 268.750 353.749 C 269.712 353.847, 271.579 354.056, 272.899 354.214 C 274.218 354.371, 275.487 353.957, 275.718 353.292 C 276.195 351.921, 271.922 349.932, 264.300 347.980 C 261.440 347.247, 259.289 346.342, 259.519 345.969 C 259.750 345.596, 262.655 344.300, 265.975 343.090 C 271.607 341.036, 274.738 340.997, 273.502 342.997 C 273.210 343.469, 273.884 344.146, 275 344.500 C 276.116 344.854, 276.840 345.449, 276.609 345.822 C 276.378 346.195, 278.283 346.393, 280.844 346.261 C 287.136 345.939, 288.168 345.696, 290.652 343.956 C 292.772 342.472, 292.774 342.439, 290.863 340.079 C 289.330 338.186, 287.922 337.679, 283.974 337.600 C 281.245 337.545, 279.010 337.447, 279.006 337.383 C 279.003 337.318, 280.840 336.048, 283.090 334.559 C 286.913 332.029, 287.298 331.960, 288.999 333.499 C 291.591 335.845, 296.054 336.293, 300.077 334.612 C 304.301 332.847, 307.599 329.488, 306.049 328.530 C 305.454 328.163, 305.200 327.485, 305.485 327.024 C 305.770 326.563, 305.032 326.440, 303.845 326.751 C 302.478 327.108, 301.925 326.930, 302.337 326.264 C 302.781 325.545, 301.807 325.488, 299.243 326.083 C 293.415 327.436, 293.236 327.191, 297.344 323.492 C 300.692 320.476, 301.465 320.181, 303.344 321.199 C 305.509 322.373, 311.973 323.013, 311.711 322.027 C 311.634 321.737, 313.243 319.858, 315.286 317.850 C 317.329 315.843, 319 313.785, 319 313.279 C 319 312.772, 316.700 312.252, 313.889 312.124 C 310.221 311.957, 308.245 312.374, 306.889 313.600 C 305.850 314.541, 305 315.041, 305 314.712 C 305 314.228, 308.625 307.508, 309.625 306.139 C 309.770 305.940, 312.276 305.776, 315.194 305.773 C 319.372 305.769, 320.852 305.325, 322.156 303.683 C 323.626 301.831, 324.017 301.759, 325.656 303.032 C 327.353 304.351, 327.348 304.287, 325.595 302.233 C 323.889 300.233, 324.068 299.550, 326.214 299.870 C 326.607 299.928, 326.643 299.233, 326.294 298.324 C 325.872 297.223, 326.047 296.911, 326.819 297.388 C 327.575 297.856, 327.771 297.566, 327.382 296.552 C 327.054 295.698, 325.822 294.966, 324.643 294.923 C 323.464 294.881, 321.710 294.696, 320.745 294.511 C 319.780 294.327, 319.198 294.512, 319.452 294.923 C 319.706 295.334, 318.327 296.427, 316.388 297.352 C 314.448 298.277, 313.104 298.641, 313.400 298.161 C 314.472 296.427, 316.319 291.483, 316.165 290.761 C 316.078 290.355, 317.836 289.730, 320.071 289.373 C 322.306 289.015, 324.725 288.132, 325.448 287.409 C 326.171 286.686, 327.078 286.411, 327.464 286.798 C 327.851 287.184, 328.039 287.050, 327.884 286.500 C 327.728 285.950, 328.562 283.562, 329.736 281.194 C 331.525 277.589, 331.636 276.798, 330.418 276.330 C 328.291 275.514, 323.231 277.891, 320.966 280.770 C 318.679 283.678, 318.612 283.265, 320.138 275.667 C 321.109 270.833, 321.601 270, 323.483 270 C 324.697 270, 326.495 269.111, 327.479 268.024 C 328.462 266.937, 329.545 266.217, 329.884 266.425 C 330.223 266.633, 330.550 265.450, 330.612 263.796 C 330.673 262.142, 331.348 260.393, 332.112 259.910 C 333.110 259.278, 333.148 259.026, 332.250 259.015 C 331.563 259.007, 331 258.325, 331 257.500 C 331 256.675, 330.585 256, 330.077 256 C 328.520 256, 323 261.093, 323 262.530 C 323 263.274, 322.520 264.179, 321.934 264.541 C 321.231 264.975, 320.975 263.888, 321.184 261.350 C 321.393 258.798, 321.947 257.593, 322.824 257.775 C 323.553 257.926, 323.859 257.581, 323.505 257.008 C 323.151 256.436, 322.443 256.226, 321.931 256.543 C 321.419 256.859, 321 255.955, 321 254.534 C 321 252.715, 321.722 251.676, 323.440 251.023 C 326.281 249.943, 328.222 244.362, 327.322 239.862 C 326.599 236.244, 325.580 235.563, 323.700 237.443 C 322.896 238.247, 321.887 238.589, 321.459 238.202 C 321.030 237.816, 320.996 238.052, 321.384 238.726 C 321.772 239.401, 321.412 241.201, 320.584 242.726 L 319.080 245.500 318.961 243 C 318.896 241.625, 318.616 241.059, 318.340 241.742 C 317.966 242.668, 317.327 242.710, 315.826 241.907 C 314.719 241.315, 312.748 241.097, 311.446 241.424 L 309.078 242.018 311.221 245.650 C 312.400 247.648, 314.857 250.163, 316.682 251.240 C 319.405 252.847, 320 253.807, 320 256.599 C 320 259.884, 318.774 261.062, 317.500 259 C 317.160 258.450, 315.784 258, 314.441 258 C 312.575 258, 312.001 258.530, 312.004 260.250 C 312.008 262.919, 315.511 269, 317.044 269 C 317.635 269, 317.843 269.445, 317.507 269.989 C 317.157 270.555, 317.558 270.723, 318.448 270.382 C 319.302 270.054, 320 270.284, 320 270.893 C 320 271.502, 319.628 272, 319.173 272 C 318.718 272, 318.555 273.462, 318.811 275.250 L 319.276 278.500 316.462 275.711 C 312.754 272.035, 310.528 272.515, 310.405 277.018 C 310.299 280.878, 311.308 283.463, 314.134 286.574 C 315.744 288.347, 315.854 289.120, 314.888 291.890 L 313.758 295.132 311.873 292.032 C 309.615 288.318, 307.508 287.324, 305.776 289.153 C 304.133 290.887, 304.122 298.101, 305.759 299.831 C 306.452 300.562, 306.720 301.644, 306.355 302.235 C 305.976 302.847, 306.158 303.021, 306.776 302.638 C 309.022 301.251, 309.056 304.173, 306.837 307.764 L 304.533 311.492 303.932 307.799 C 303.319 304.027, 301.491 301, 299.827 301 C 298.610 301, 295.998 307.301, 296.006 310.218 C 296.010 311.473, 296.702 313.822, 297.544 315.437 C 299.003 318.234, 298.957 318.485, 296.581 320.687 C 295.210 321.959, 293.843 323, 293.544 323 C 293.245 323, 293 321.286, 293 319.191 C 293 317.096, 292.339 314.509, 291.532 313.441 C 290.369 311.903, 290.060 307.759, 290.047 293.500 C 290.038 283.600, 290.412 274.899, 290.878 274.164 C 291.343 273.429, 292.799 272.979, 294.112 273.164 C 296.299 273.472, 296.525 273.111, 296.799 268.886 L 297.098 264.272 292.299 264.443 L 287.500 264.614 287.774 228.307 C 287.936 206.926, 288.429 192, 288.974 192 C 289.482 192, 291.224 190.582, 292.844 188.848 C 295.429 186.083, 295.667 185.343, 294.785 182.813 C 294.232 181.228, 293.990 178.835, 294.246 177.496 C 294.533 175.990, 294.320 175.302, 293.686 175.694 C 293.081 176.068, 292.901 175.701, 293.246 174.801 C 293.753 173.480, 291.821 173.249, 278.844 173.079 C 263.575 172.879, 260.575 172.497, 261.575 170.879 C 261.885 170.378, 262.627 170.269, 263.224 170.638 C 263.871 171.039, 264.021 170.844, 263.595 170.155 C 262.686 168.683, 262.492 168.703, 261.074 170.411 M 357.300 204 C 357.300 207.025, 357.487 208.262, 357.716 206.750 C 357.945 205.238, 357.945 202.762, 357.716 201.250 C 357.487 199.738, 357.300 200.975, 357.300 204 M 357.252 222.500 C 357.263 224.700, 357.468 225.482, 357.707 224.238 C 357.946 222.994, 357.937 221.194, 357.687 220.238 C 357.437 219.282, 357.241 220.300, 357.252 222.500 M 191.649 223.818 C 191.181 224.543, 190.069 224.857, 189.179 224.515 C 188.289 224.174, 187.859 224.192, 188.224 224.557 C 188.588 224.921, 188.012 226.851, 186.943 228.845 C 184.825 232.797, 184.473 236.650, 186.015 239 C 186.841 240.258, 187.143 240.278, 187.888 239.122 C 188.405 238.320, 189.306 238.071, 190.043 238.526 C 190.886 239.048, 191.060 238.907, 190.564 238.104 C 190.155 237.442, 190.562 235.336, 191.469 233.425 C 193.143 229.896, 193.305 221.253, 191.649 223.818 M 311.102 227.514 C 311.565 229.997, 312.428 232.931, 313.019 234.035 C 313.609 235.138, 313.777 236.552, 313.392 237.175 C 312.989 237.826, 313.134 238.035, 313.732 237.666 C 314.305 237.312, 315.329 237.692, 316.009 238.511 C 318.078 241.004, 319 240.200, 319 235.901 C 319 230.651, 316.593 225.591, 313.405 224.139 C 312.030 223.512, 310.760 223, 310.582 223 C 310.404 223, 310.638 225.031, 311.102 227.514 M 357.272 231 C 357.272 233.475, 357.467 234.488, 357.706 233.250 C 357.944 232.012, 357.944 229.988, 357.706 228.750 C 357.467 227.512, 357.272 228.525, 357.272 231 M 147.272 251 C 147.272 253.475, 147.467 254.488, 147.706 253.250 C 147.944 252.012, 147.944 249.988, 147.706 248.750 C 147.467 247.512, 147.272 248.525, 147.272 251 M 222.015 283.750 C 222.024 294.063, 222.361 302.965, 222.765 303.533 C 223.169 304.102, 224.175 304.552, 225 304.533 C 226.266 304.505, 226.543 301.708, 226.774 286.631 C 226.978 273.307, 226.723 268.362, 225.774 267.189 C 224.786 265.970, 224.781 265.785, 225.750 266.367 C 226.438 266.780, 227 266.641, 227 266.059 C 227 265.477, 225.875 265, 224.500 265 L 222 265 222.015 283.750 M 179 341.500 C 180.866 343.425, 182.617 345, 182.892 345 C 183.167 345, 181.866 343.425, 180 341.500 C 178.134 339.575, 176.383 338, 176.108 338 C 175.833 338, 177.134 339.575, 179 341.500 M 248.405 355.845 C 249.024 356.848, 247.323 357.474, 244.853 357.153 C 243.704 357.003, 245.274 361.473, 246.659 362.300 C 248.858 363.611, 248.263 365.211, 246.023 364.012 C 244.444 363.167, 244.155 363.241, 244.592 364.378 C 245.596 366.995, 248.946 367.012, 250.652 364.409 C 251.984 362.375, 252.038 361.507, 250.989 358.973 C 250.302 357.314, 249.279 355.672, 248.715 355.324 C 248.127 354.961, 247.995 355.183, 248.405 355.845 M 254.750 356.752 C 252.765 357.200, 252.262 362, 254.200 362 C 255.133 362, 255.133 362.267, 254.200 363.200 C 252.378 365.022, 252.754 366, 255.278 366 C 258.321 366, 260.885 362.922, 259.950 360.393 C 258.970 357.743, 256.871 356.274, 254.750 356.752 M 262.112 357.699 C 261.158 358.738, 261.062 359.421, 261.806 359.880 C 262.987 360.610, 262.911 362.752, 261.631 364.801 C 261.003 365.808, 261.844 366.048, 265.355 365.867 C 267.850 365.738, 269.676 365.284, 269.413 364.860 C 269.151 364.435, 268.319 364.324, 267.566 364.613 C 266.522 365.014, 266.232 364.098, 266.348 360.762 C 266.512 356.037, 264.784 354.787, 262.112 357.699 M 238.224 358.176 C 237.371 359.029, 237.347 359.713, 238.136 360.663 C 239.332 362.105, 238.519 365.439, 237.174 364.607 C 236.712 364.322, 236.333 364.662, 236.333 365.365 C 236.333 366.067, 237.270 366.535, 238.417 366.404 C 239.563 366.273, 241.400 366.122, 242.500 366.068 C 243.639 366.012, 244.055 365.653, 243.467 365.235 C 242.898 364.831, 242.392 363.712, 242.342 362.750 C 242.291 361.788, 242.194 360.100, 242.125 359 C 241.986 356.779, 240.033 356.367, 238.224 358.176" stroke="none" fill="#fffdfa" fill-rule="evenodd"/><path d="M 234.500 115.466 C 228.259 116.894, 217.698 120.271, 200.294 126.404 C 194.681 128.382, 188.305 130, 186.126 130 C 179.910 130, 179.170 130.647, 177.879 137.210 C 176.081 146.351, 170.657 153.812, 162.903 157.811 C 159.502 159.565, 155.545 161.007, 154.110 161.015 C 148.291 161.049, 148.530 159.303, 148.156 204.562 C 147.943 230.303, 148.237 250.647, 148.926 257.849 C 153.990 310.807, 168.943 338.176, 204.199 359.021 C 210.965 363.021, 224.460 371.177, 234.188 377.147 C 243.917 383.116, 252.113 388, 252.403 388 C 252.693 388, 256.791 385.510, 261.509 382.466 C 266.228 379.422, 279.775 371.112, 291.615 364 C 316.254 349.198, 320.924 345.587, 329.760 334.500 C 343.852 316.820, 351.096 295.761, 355.044 261 C 356.122 251.514, 356.474 172.296, 355.465 166.500 C 354.590 161.479, 354.183 161, 350.781 160.990 C 339.962 160.958, 326.067 146.714, 325.985 135.572 C 325.959 132.097, 324.377 130.703, 320.156 130.434 C 315.221 130.120, 307.384 127.917, 295.500 123.505 C 276.398 116.412, 268.592 114.696, 254 114.383 C 245.133 114.192, 238.441 114.564, 234.500 115.466 M 241.500 118.673 C 235.558 119.527, 220.263 124.022, 208.258 128.441 C 201.525 130.919, 193.094 133.486, 189.521 134.144 C 183.165 135.315, 183.012 135.417, 182.356 138.920 C 180.128 150.821, 170.524 161.364, 159.355 164.172 C 156.685 164.843, 154.195 165.641, 153.823 165.946 C 152.691 166.872, 152.052 234.502, 153.029 250 C 155.767 293.474, 165.551 320.186, 185.998 340.015 C 192.076 345.910, 197.711 349.871, 212.124 358.381 C 222.231 364.348, 235.310 372.291, 241.190 376.031 L 251.880 382.832 265.690 374.322 C 273.285 369.642, 284.225 363.070, 290 359.719 C 306.813 349.961, 312.004 346.191, 320.500 337.566 C 336.255 321.572, 345.031 300.984, 349.686 269.098 C 351.349 257.713, 352.415 187.634, 351.148 173.040 L 350.500 165.581 346.718 164.799 C 335.181 162.416, 326.161 153.454, 322.510 140.750 C 321.135 135.963, 320.485 135, 318.628 135 C 315.952 135, 305.153 131.763, 287.442 125.651 C 268.686 119.179, 253.755 116.911, 241.500 118.673 M 211.584 173.865 C 211.290 174.340, 210.759 177.202, 210.403 180.225 C 209.767 185.641, 209.810 185.763, 213.379 188.611 L 217 191.500 217 218.534 L 217 245.569 214 247.341 C 210.735 249.270, 210.754 249.211, 210.971 256.500 C 211.070 259.808, 211.672 261.923, 212.751 262.750 C 213.873 263.610, 218.657 264, 228.074 264 C 243.541 264, 242.957 264.342, 242.986 255.280 C 242.998 251.743, 242.515 250.701, 240 248.842 L 237 246.624 237 231.112 C 237 222.474, 237.378 216.021, 237.853 216.550 C 238.323 217.073, 243.763 227.400, 249.944 239.500 C 256.125 251.600, 261.902 262.063, 262.782 262.750 C 263.847 263.582, 268.164 264, 275.691 264 L 287 264 287.012 228.250 L 287.025 192.500 290.632 190.163 L 294.239 187.825 293.548 181.721 C 293.108 177.830, 292.248 175.147, 291.179 174.324 C 289.959 173.385, 285.809 173.095, 276 173.266 L 262.500 173.500 261.563 179.419 L 260.625 185.337 264.313 188.525 L 268 191.712 268 207.056 C 268 216.304, 267.638 222.023, 267.090 221.450 C 266.589 220.928, 260.923 210.256, 254.497 197.736 C 248.072 185.215, 241.986 174.528, 240.973 173.986 C 238.708 172.773, 212.325 172.665, 211.584 173.865 M 211.006 282.750 C 211.014 308.086, 212.215 311.026, 222.877 311.797 C 229.391 312.269, 234.083 310.489, 236.213 306.740 C 237.087 305.201, 237.594 298.316, 237.833 284.750 L 238.181 265 233.651 265 L 229.121 265 228.811 283.967 C 228.549 299.927, 228.240 303.193, 226.862 304.569 C 224.762 306.666, 221.414 305.672, 220.622 302.717 C 220.295 301.498, 220.021 292.512, 220.014 282.750 L 220 265 215.500 265 L 211 265 211.006 282.750 M 249.311 266.952 C 245.222 269.445, 243.580 274.726, 245.117 280.436 C 245.902 283.348, 247.955 286.078, 252.674 290.484 C 257.955 295.413, 259.186 297.152, 259.327 299.879 C 259.573 304.639, 256.629 306.420, 253.937 303.139 C 252.872 301.841, 252 299.872, 252 298.764 C 252 297.042, 251.548 296.840, 248.875 297.375 C 247.156 297.719, 245.367 298, 244.900 298 C 243.721 298, 244.955 303.938, 246.804 307.165 C 248.679 310.438, 251.927 312.005, 256.797 311.985 C 264.872 311.953, 269.721 306.291, 268.521 298.294 C 267.918 294.272, 266.904 292.732, 260.988 286.851 C 253.570 279.477, 252.306 277.165, 253.980 274.038 C 255.936 270.383, 260 272.255, 260 276.811 C 260 279.056, 260.260 279.174, 263.750 278.522 C 265.813 278.137, 267.642 277.682, 267.816 277.512 C 268.689 276.655, 265.648 268.750, 263.774 267.004 C 260.913 264.339, 253.640 264.312, 249.311 266.952 M 272 269 C 272 272.905, 272.083 273, 275.500 273 L 279 273 279 292.500 L 279 312 283.500 312 L 288 312 288 292.500 L 288 273 291.500 273 C 294.917 273, 295 272.905, 295 269 L 295 265 283.500 265 L 272 265 272 269 M 240.100 357 C 239.970 357.275, 239.782 359.413, 239.682 361.751 C 239.526 365.400, 239.783 365.999, 241.500 365.985 C 242.768 365.975, 243.070 365.696, 242.324 365.222 C 241.678 364.810, 240.966 362.680, 240.743 360.487 C 240.519 358.294, 240.230 356.725, 240.100 357 M 264.011 357 C 263.317 359.363, 263.714 366.001, 264.549 366.001 C 265.161 366, 265.443 364.436, 265.227 362.250 C 264.855 358.504, 264.288 356.056, 264.011 357" stroke="none" fill="#1b375b" fill-rule="evenodd"/><path d="M 230.048 121.949 C 229.249 122.455, 228.167 122.603, 227.643 122.280 C 227.119 121.956, 227.013 122.212, 227.406 122.848 C 228.048 123.887, 230.917 123.114, 232.917 121.365 C 233.798 120.594, 231.427 121.077, 230.048 121.949 M 250.605 138.170 C 251.088 138.952, 250.787 139.132, 249.696 138.714 C 248.798 138.369, 247.755 138.587, 247.378 139.198 C 246.962 139.871, 247.146 140.028, 247.845 139.595 C 248.480 139.203, 249 139.321, 249 139.858 C 249 140.394, 248.438 141.060, 247.750 141.338 C 246.990 141.644, 247.172 141.873, 248.215 141.921 C 249.158 141.964, 250.435 141.056, 251.052 139.902 L 252.175 137.805 253.644 139.902 C 255.143 142.042, 258 142.783, 258 141.031 C 258 140.499, 257.251 140.350, 256.336 140.701 C 255.128 141.165, 254.896 140.977, 255.490 140.015 C 256.006 139.181, 255.920 138.931, 255.259 139.340 C 254.682 139.697, 253.952 139.316, 253.636 138.494 C 253.321 137.672, 252.347 137, 251.472 137 C 250.513 137, 250.169 137.464, 250.605 138.170 M 181.405 144.845 C 181.797 145.480, 181.615 146, 181 146 C 180.385 146, 180.160 146.450, 180.500 147 C 180.840 147.550, 180.690 148, 180.166 148 C 179.642 148, 178.955 148.675, 178.638 149.500 C 177.633 152.120, 179.500 151.116, 181.300 148.069 C 182.570 145.920, 182.720 144.945, 181.861 144.414 C 181.131 143.963, 180.959 144.125, 181.405 144.845 M 270.200 149.200 C 269.540 149.860, 269 150.923, 269 151.562 C 269 152.310, 267.676 152.578, 265.286 152.315 C 260.505 151.788, 261.446 152.813, 266.316 153.437 C 269.498 153.844, 270 153.634, 270 151.895 C 270 150.788, 270.375 150.114, 270.833 150.397 C 271.292 150.680, 271.667 150.257, 271.667 149.456 C 271.667 147.700, 271.695 147.705, 270.200 149.200 M 168.946 152.750 L 165.500 156.500 169.250 153.054 C 172.740 149.846, 173.460 149, 172.696 149 C 172.529 149, 170.842 150.688, 168.946 152.750 M 240.559 151.532 C 238.646 152.978, 238.647 153, 240.642 153 C 241.775 153, 242.667 152.339, 242.667 151.500 C 242.667 150.675, 242.629 150.014, 242.583 150.032 C 242.537 150.049, 241.626 150.724, 240.559 151.532 M 325.722 152.122 C 326.339 152.739, 326.611 153.976, 326.328 154.872 C 325.919 156.160, 326.016 156.214, 326.789 155.130 C 327.616 153.970, 327.899 153.970, 328.633 155.130 C 329.110 155.884, 330.400 157.175, 331.500 158 C 332.600 158.825, 331.925 157.626, 330 155.335 C 328.075 153.044, 326.072 151.131, 325.550 151.085 C 325.028 151.038, 325.105 151.505, 325.722 152.122 M 174.136 155.500 C 172.385 157.425, 171.397 159, 171.941 159 C 172.485 159, 173.409 158.104, 173.995 157.010 C 174.580 155.915, 175.549 155.128, 176.147 155.260 C 176.745 155.392, 177.367 154.713, 177.529 153.750 C 177.923 151.406, 177.808 151.465, 174.136 155.500 M 167 161.605 C 165.418 162.575, 165.205 162.917, 166.420 162.535 C 167.498 162.197, 168.685 162.490, 169.126 163.204 C 169.636 164.029, 169.852 163.691, 169.743 162.237 C 169.650 161.007, 169.558 160.016, 169.537 160.035 C 169.517 160.055, 168.375 160.761, 167 161.605 M 160 164.969 C 160 165.501, 159.325 165.678, 158.500 165.362 C 157.675 165.045, 157 165.011, 157 165.286 C 157 166.600, 159.992 166.715, 161.049 165.441 C 161.897 164.419, 161.919 164, 161.122 164 C 160.505 164, 160 164.436, 160 164.969 M 350 168.417 C 350 169.196, 349.438 170.060, 348.750 170.338 C 348.003 170.639, 348.205 170.874, 349.250 170.921 C 350.360 170.971, 351 170.268, 351 169 C 351 167.900, 350.775 167, 350.500 167 C 350.225 167, 350 167.637, 350 168.417 M 261.074 170.411 C 260.220 171.440, 260.205 172.008, 261.018 172.511 C 261.631 172.890, 262.403 172.930, 262.733 172.600 C 263.063 172.270, 262.782 172, 262.108 172 C 261.434 172, 261.165 171.543, 261.510 170.984 C 261.856 170.425, 262.627 170.269, 263.224 170.638 C 263.871 171.039, 264.021 170.844, 263.595 170.155 C 262.686 168.683, 262.492 168.703, 261.074 170.411 M 212.595 172.154 C 212.883 172.619, 214.966 173, 217.226 173 C 219.485 173, 221.142 172.808, 220.907 172.574 C 220.064 171.731, 212.084 171.327, 212.595 172.154 M 356.310 176.500 C 356.315 179.800, 356.502 181.029, 356.725 179.232 C 356.947 177.435, 356.943 174.735, 356.715 173.232 C 356.486 171.729, 356.304 173.200, 356.310 176.500 M 153.349 183 C 153.349 187.675, 153.522 189.588, 153.732 187.250 C 153.943 184.912, 153.943 181.088, 153.732 178.750 C 153.522 176.412, 153.349 178.325, 153.349 183 M 147.417 200.500 C 147.418 210.950, 147.566 215.089, 147.746 209.698 C 147.926 204.307, 147.925 195.757, 147.744 190.698 C 147.563 185.639, 147.416 190.050, 147.417 200.500 M 260.116 183.309 C 260.043 184.450, 259.538 184.857, 258.750 184.412 C 257.758 183.852, 257.754 183.981, 258.733 185.037 C 260.266 186.690, 261.334 185.765, 260.704 183.328 C 260.254 181.585, 260.227 181.584, 260.116 183.309 M 294 184.559 C 294 185.966, 294.408 186.866, 294.906 186.558 C 295.404 186.250, 295.577 185.098, 295.289 183.999 C 294.570 181.247, 294 181.495, 294 184.559 M 215.999 214.798 L 216.497 239.500 216.767 215.569 C 216.916 202.406, 216.691 191.291, 216.269 190.867 C 215.846 190.443, 215.724 201.213, 215.999 214.798 M 351.382 222.500 C 351.384 229.100, 351.546 231.670, 351.741 228.211 C 351.937 224.752, 351.936 219.352, 351.738 216.211 C 351.540 213.070, 351.380 215.900, 351.382 222.500 M 310.810 226.500 C 311.035 228.425, 311.395 230, 311.609 230 C 311.824 230, 312 228.425, 312 226.500 C 312 224.575, 311.640 223, 311.201 223 C 310.761 223, 310.585 224.575, 310.810 226.500 M 315.177 226.871 C 316.454 228.447, 317.644 229.615, 317.819 229.466 C 318.418 228.958, 315.548 225.040, 314.198 224.523 C 313.458 224.239, 313.899 225.296, 315.177 226.871 M 147.370 237 C 147.370 242.775, 147.535 245.137, 147.737 242.250 C 147.939 239.363, 147.939 234.637, 147.737 231.750 C 147.535 228.863, 147.370 231.225, 147.370 237 M 185.232 235 C 185.232 236.925, 185.438 237.713, 185.689 236.750 C 185.941 235.787, 185.941 234.213, 185.689 233.250 C 185.438 232.287, 185.232 233.075, 185.232 235 M 313.429 235.861 C 313.429 236.957, 313.731 237.666, 314.101 237.438 C 314.471 237.209, 315.329 237.692, 316.009 238.511 C 317.447 240.243, 319 240.467, 319 238.941 C 319 238.359, 318.589 238.136, 318.087 238.446 C 317.585 238.756, 316.332 237.853, 315.301 236.439 C 313.625 234.137, 313.429 234.077, 313.429 235.861 M 182.009 236.489 C 181.329 237.308, 180.262 237.681, 179.637 237.317 C 179.012 236.954, 179.357 237.634, 180.405 238.828 C 182.533 241.254, 183.952 241.852, 182 239.500 C 180.897 238.171, 181.249 237.628, 183.083 237.826 C 183.404 237.861, 183.667 237.239, 183.667 236.444 C 183.667 234.644, 183.538 234.647, 182.009 236.489 M 187.500 238 C 186.474 239.134, 186.190 240, 186.845 240 C 187.480 240, 188 239.502, 188 238.893 C 188 238.284, 188.652 238.036, 189.449 238.342 C 190.418 238.714, 190.714 238.418, 190.342 237.449 C 189.639 235.616, 189.661 235.612, 187.500 238 M 323.700 237.443 C 322.896 238.247, 321.887 238.589, 321.459 238.202 C 321.030 237.816, 321.017 238.084, 321.429 238.799 C 321.905 239.624, 322.601 239.764, 323.339 239.183 C 323.978 238.680, 325.153 238.066, 325.951 237.817 C 326.941 237.509, 327.046 237.146, 326.281 236.674 C 325.665 236.293, 324.504 236.639, 323.700 237.443 M 153.098 245.718 C 152.978 249.423, 153.094 252.239, 153.356 251.977 C 154.036 251.297, 154.468 240.135, 153.839 239.506 C 153.551 239.218, 153.218 242.013, 153.098 245.718 M 313.895 242.306 C 316.083 243.076, 317.948 244.738, 319.145 246.984 L 321 250.469 320.985 246.484 C 320.973 243.544, 320.715 242.893, 320 244 C 319.231 245.190, 319.024 244.983, 319 243 C 318.981 241.467, 318.675 240.963, 318.208 241.697 C 317.706 242.487, 316.945 242.577, 315.974 241.963 C 315.163 241.450, 313.600 241.049, 312.500 241.072 C 311.221 241.098, 311.723 241.543, 313.895 242.306 M 177.063 246.340 C 176.996 248.298, 180.655 251.911, 182.762 251.967 C 184.169 252.004, 183.443 259.738, 181.872 261.450 C 181.392 261.972, 181.007 262.873, 181.015 263.450 C 181.024 264.027, 181.501 263.825, 182.076 263 C 182.846 261.895, 182.946 262.421, 182.455 265 C 181.960 267.602, 182.082 268.222, 182.929 267.416 C 183.999 266.398, 184.545 262.945, 184.864 255.183 C 184.985 252.226, 185.245 251.940, 187.250 252.557 C 188.488 252.937, 189.181 252.911, 188.790 252.498 C 188.400 252.085, 186.647 251.580, 184.896 251.376 C 181.267 250.954, 179.142 249.473, 177.952 246.535 C 177.214 244.714, 177.120 244.694, 177.063 246.340 M 356.252 248.500 C 356.263 250.700, 356.468 251.482, 356.707 250.238 C 356.946 248.994, 356.937 247.194, 356.687 246.238 C 356.437 245.282, 356.241 246.300, 356.252 248.500 M 242.157 250.667 C 243.362 251.950, 244.453 253, 244.580 253 C 244.708 253, 244.316 251.950, 243.711 250.667 C 243.105 249.383, 242.014 248.333, 241.287 248.333 C 240.439 248.333, 240.751 249.170, 242.157 250.667 M 256.133 254.500 C 257.268 256.425, 258.371 258, 258.583 258 C 258.794 258, 258.217 256.425, 257.299 254.500 C 256.381 252.575, 255.278 251, 254.849 251 C 254.419 251, 254.997 252.575, 256.133 254.500 M 318.454 252.343 C 319.927 253.420, 320.191 254.542, 319.747 257.848 C 319.441 260.131, 319.567 262.232, 320.027 262.517 C 320.487 262.801, 321.007 261.789, 321.182 260.267 C 321.372 258.611, 322.032 257.610, 322.824 257.775 C 323.553 257.926, 323.859 257.581, 323.505 257.008 C 323.151 256.436, 322.382 256.264, 321.797 256.626 C 321.103 257.054, 320.882 256.257, 321.163 254.343 C 321.537 251.798, 321.259 251.375, 319.099 251.196 C 316.767 251.003, 316.725 251.078, 318.454 252.343 M 154 260.500 C 154 261.875, 154.173 263, 154.383 263 C 154.594 263, 154.982 261.875, 155.245 260.500 C 155.508 259.125, 155.335 258, 154.861 258 C 154.388 258, 154 259.125, 154 260.500 M 259.846 262.315 C 260.718 263.365, 260.004 263.678, 256.303 263.869 C 253.755 264.001, 250.506 264.788, 249.085 265.618 C 247.663 266.448, 247.400 266.791, 248.500 266.380 C 249.600 265.969, 252.916 265.445, 255.870 265.217 C 260.299 264.874, 261.788 265.202, 264.370 267.092 C 266.091 268.352, 266.976 268.734, 266.335 267.941 C 265.694 267.149, 265.155 266.133, 265.137 265.684 C 265.098 264.756, 260.555 261, 259.470 261 C 259.077 261, 259.246 261.592, 259.846 262.315 M 211.357 263.500 C 212.182 264.325, 213.425 265, 214.120 265 C 214.828 265, 214.531 264.356, 213.441 263.532 C 210.894 261.605, 209.440 261.583, 211.357 263.500 M 174.030 264.595 C 174.014 265.197, 174.889 266.495, 175.976 267.479 C 177.063 268.462, 177.715 269.652, 177.424 270.122 C 177.134 270.592, 177.615 270.701, 178.493 270.364 C 179.877 269.833, 179.821 269.563, 178.075 268.340 C 176.966 267.563, 175.609 266.157, 175.060 265.214 C 174.510 264.271, 174.047 263.993, 174.030 264.595 M 209.681 265.612 C 210.078 266.645, 209.941 267.081, 209.337 266.708 C 208.785 266.367, 208.333 266.723, 208.333 267.500 C 208.333 268.277, 208.698 268.687, 209.144 268.411 C 209.590 268.136, 210.088 276.143, 210.251 286.205 L 210.548 304.500 210.774 284.809 C 210.913 272.660, 210.621 264.884, 210.011 264.507 C 209.424 264.144, 209.290 264.593, 209.681 265.612 M 295.982 268.702 C 295.717 271.563, 295.866 273.536, 296.314 273.088 C 296.762 272.639, 296.979 270.298, 296.796 267.886 L 296.463 263.500 295.982 268.702 M 321.667 264.667 C 321.300 265.033, 321 266.351, 321 267.595 C 321 268.839, 320.322 270.536, 319.492 271.365 C 318.481 272.376, 318.339 273.091, 319.059 273.536 C 320.501 274.428, 320.614 274.228, 321.762 268.750 C 322.792 263.835, 322.785 263.548, 321.667 264.667 M 221.185 284.191 C 221.083 295.021, 221.338 304.091, 221.750 304.347 C 222.162 304.603, 222.380 297.993, 222.234 289.656 C 221.805 265.231, 221.384 263.037, 221.185 284.191 M 227 266.059 C 227 266.641, 226.438 266.780, 225.750 266.367 C 224.758 265.771, 224.753 265.929, 225.726 267.131 C 226.560 268.162, 227.047 274.212, 227.251 286.073 L 227.550 303.500 227.775 284.250 C 227.899 273.663, 227.775 265, 227.500 265 C 227.225 265, 227 265.477, 227 266.059 M 238 284 C 238 294.633, 238.196 303.137, 238.436 302.897 C 239.145 302.188, 239.342 266.009, 238.641 265.308 C 238.289 264.955, 238 273.367, 238 284 M 271.272 269 C 271.272 271.475, 271.467 272.488, 271.706 271.250 C 271.944 270.012, 271.944 267.988, 271.706 266.750 C 271.467 265.512, 271.272 266.525, 271.272 269 M 244.274 268.831 C 243.598 269.249, 243.446 270.104, 243.914 270.860 C 244.541 271.875, 244.870 271.781, 245.384 270.441 C 246.183 268.359, 245.840 267.863, 244.274 268.831 M 184.168 271.074 C 183.746 272.215, 182.985 273.081, 182.475 272.999 C 181.966 272.917, 181.460 273.345, 181.350 273.950 C 181.240 274.555, 181.370 274.614, 181.640 274.081 C 181.909 273.548, 182.775 273.360, 183.565 273.663 C 184.540 274.037, 185 273.519, 185 272.048 C 185 270.665, 185.418 270.140, 186.155 270.595 C 186.870 271.038, 187.038 270.870, 186.595 270.155 C 185.578 268.509, 185.042 268.712, 184.168 271.074 M 267.500 274.915 C 267.500 278.190, 267.845 279.543, 268.535 278.971 C 269.399 278.254, 269.673 273.779, 268.963 272 C 268.853 271.725, 268.816 271.163, 268.882 270.750 C 268.947 270.337, 268.663 270, 268.250 270 C 267.837 270, 267.500 272.212, 267.500 274.915 M 242.951 276.724 C 242.677 279.047, 242.833 280.567, 243.299 280.101 C 243.765 279.635, 243.989 277.735, 243.798 275.877 C 243.459 272.583, 243.438 272.604, 242.951 276.724 M 278 274.800 C 278 275.790, 277.438 277.206, 276.750 277.947 C 275.802 278.968, 275.797 279.126, 276.726 278.602 C 277.669 278.071, 278.021 281.908, 278.251 295.206 L 278.550 312.500 278.775 292.750 C 278.899 281.887, 278.775 273, 278.500 273 C 278.225 273, 278 273.810, 278 274.800 M 289 292.542 C 289 311.288, 289.089 312.174, 291.183 314.292 L 293.366 316.500 291.623 313.694 C 290.094 311.232, 289.918 308.561, 290.190 291.942 C 290.360 281.523, 290.163 272.998, 289.750 272.999 C 289.337 272.999, 289 281.794, 289 292.542 M 310.384 274.442 C 310.080 275.234, 310.042 276.697, 310.299 277.692 C 310.606 278.875, 310.808 278.549, 310.884 276.750 C 311.108 271.436, 316.497 274.824, 317.925 281.177 C 319.225 286.960, 317.519 288.561, 313.579 285.257 C 311.802 283.768, 311.829 283.888, 313.759 286.081 C 315.735 288.327, 315.880 289.047, 314.911 291.826 L 313.803 295.004 311.616 291.759 C 310.414 289.974, 308.545 288.399, 307.465 288.258 C 305.763 288.036, 305.793 288.129, 307.685 288.945 C 311.514 290.597, 312.981 295.735, 311.356 301.802 L 310.740 304.104 308.536 302.034 C 306.880 300.479, 306.333 300.328, 306.333 301.427 C 306.333 302.231, 306.821 302.801, 307.417 302.694 C 308.012 302.587, 308.443 303.256, 308.373 304.180 C 308.279 305.417, 309.019 305.837, 311.183 305.776 C 312.980 305.725, 313.639 305.395, 312.880 304.926 C 311.968 304.362, 312.383 303.187, 314.452 300.474 C 317.040 297.081, 317.084 296.884, 315.011 297.994 C 313.772 298.657, 313.024 298.769, 313.349 298.244 C 314.437 296.483, 316.325 291.508, 316.176 290.793 C 316.095 290.404, 317.710 289.783, 319.764 289.414 C 324.837 288.504, 327.550 286.922, 322.750 287.674 C 318.142 288.396, 317.874 287.006, 321.536 281.390 L 324.073 277.500 321.415 280.447 L 318.758 283.393 319.327 278.947 C 319.639 276.501, 319.656 275.311, 319.364 276.303 C 318.884 277.933, 318.589 277.862, 316.280 275.553 C 313.424 272.697, 311.214 272.280, 310.384 274.442 M 174.053 275.902 C 173.185 277.522, 173.330 277.726, 175.033 277.281 C 176.132 276.994, 177.273 276.368, 177.568 275.891 C 177.863 275.413, 177.332 275.319, 176.388 275.681 C 175.224 276.128, 174.904 275.964, 175.395 275.170 C 175.793 274.526, 175.882 274, 175.594 274 C 175.306 274, 174.612 274.856, 174.053 275.902 M 254 276.392 C 254 277.891, 254.410 278.865, 254.911 278.555 C 255.915 277.935, 255.787 275.454, 254.696 274.362 C 254.313 273.980, 254 274.893, 254 276.392 M 184.534 279.750 C 184.714 282.363, 185.153 285.254, 185.509 286.176 C 185.982 287.399, 185.528 287.966, 183.829 288.276 C 182.061 288.597, 182.185 288.676, 184.343 288.601 C 186.782 288.516, 187.396 289.071, 188.659 292.501 C 191.637 300.588, 191.628 300.789, 188.426 298 C 186.390 296.226, 186.659 296.759, 189.353 299.835 C 192.442 303.364, 192.900 304.387, 191.812 305.335 C 191.077 305.976, 190.670 306.387, 190.907 306.248 C 191.144 306.109, 192.274 306.772, 193.419 307.721 C 194.563 308.670, 194.938 308.806, 194.250 308.023 C 192.361 305.872, 192.752 304.828, 194.935 306.192 C 196 306.856, 196.648 307.760, 196.376 308.200 C 196.104 308.640, 196.374 309, 196.976 309 C 197.761 309, 197.755 309.589, 196.954 311.086 C 196.340 312.233, 196.099 313.433, 196.419 313.752 C 196.739 314.072, 197 313.733, 197 313 C 197 311.698, 198.485 312.514, 198.515 313.833 C 198.542 314.977, 200.079 317, 200.922 317 C 201.619 317, 201.690 313.431, 201.022 312 C 200.893 311.725, 200.865 310.307, 200.959 308.849 C 201.053 307.391, 200.690 305.926, 200.151 305.594 C 199.563 305.230, 199.356 306.153, 199.633 307.907 C 199.895 309.571, 199.577 311.144, 198.892 311.567 C 198.142 312.030, 197.952 311.886, 198.386 311.184 C 198.769 310.565, 198.360 308.663, 197.478 306.958 C 196.150 304.390, 196.097 303.567, 197.170 302.178 C 198.323 300.684, 198.242 300.689, 196.433 302.224 C 194.508 303.856, 194.323 303.856, 192.950 302.223 C 191.610 300.628, 191.263 299.026, 190.706 291.845 C 190.593 290.386, 190.092 289.443, 189.592 289.752 C 189.090 290.063, 188.953 289.287, 189.287 288.012 C 189.741 286.274, 189.606 285.994, 188.734 286.866 C 187.863 287.737, 187.295 287.486, 186.413 285.838 C 185.501 284.134, 185.550 282.927, 186.636 280.328 C 187.543 278.157, 187.654 277, 186.954 277 C 186.365 277, 186.160 276.550, 186.500 276 C 186.840 275.450, 186.463 275, 185.663 275 C 184.547 275, 184.283 276.109, 184.534 279.750 M 328.250 276.689 C 329.212 276.941, 330 277.590, 330 278.132 C 330 278.674, 330.457 278.835, 331.016 278.490 C 332.606 277.508, 331.117 275.988, 328.691 276.116 C 326.999 276.206, 326.899 276.336, 328.250 276.689 M 193 280 C 193 281.867, 193.267 282.133, 194.200 281.200 C 195.133 280.267, 195.133 279.733, 194.200 278.800 C 193.267 277.867, 193 278.133, 193 280 M 258.320 278.709 C 259.175 280.092, 263 281.070, 263 279.906 C 263 279.408, 262.587 279, 262.082 279 C 261.577 279, 260.378 278.699, 259.418 278.330 C 258.320 277.909, 257.913 278.050, 258.320 278.709 M 174 280.723 C 174 281.303, 174.927 282.841, 176.059 284.139 L 178.119 286.500 176.362 283.500 C 174.050 279.552, 174 279.493, 174 280.723 M 257.466 282.964 C 260.006 285.616, 262.930 286.314, 261.447 283.915 C 261.125 283.394, 260.458 283.217, 259.964 283.522 C 259.470 283.828, 258.492 283.160, 257.792 282.039 C 257.092 280.917, 256.093 280, 255.572 280 C 255.052 280, 255.904 281.334, 257.466 282.964 M 243.632 281.786 C 243.278 282.360, 243.465 282.988, 244.048 283.183 C 244.632 283.377, 245.240 284.428, 245.400 285.518 C 245.560 286.608, 246.323 287.520, 247.095 287.545 C 247.868 287.570, 248.376 288.166, 248.225 288.870 C 248.074 289.573, 248.415 289.862, 248.982 289.511 C 249.550 289.160, 250.271 289.542, 250.584 290.359 C 250.898 291.177, 251.907 292.131, 252.827 292.479 C 253.747 292.828, 252.645 291.175, 250.378 288.807 C 248.112 286.438, 245.811 283.655, 245.267 282.622 C 244.673 281.496, 244.018 281.161, 243.632 281.786 M 256.530 296 C 257.033 296.825, 257.535 298.104, 257.647 298.842 C 257.991 301.118, 259 301.451, 259 299.289 C 259 298.165, 258.239 296.627, 257.308 295.872 C 255.848 294.688, 255.741 294.705, 256.530 296 M 324.694 295.644 C 325.350 295.911, 325.657 296.730, 325.376 297.463 C 325.094 298.197, 325.339 299.092, 325.920 299.451 C 326.585 299.862, 326.733 299.467, 326.319 298.388 C 325.875 297.231, 326.038 296.905, 326.819 297.388 C 327.575 297.856, 327.771 297.566, 327.382 296.552 C 327.054 295.698, 326.047 295.036, 325.143 295.079 C 324.197 295.124, 324.006 295.364, 324.694 295.644 M 243.612 297.107 C 242.508 300.648, 242.255 303, 242.980 303 C 243.416 303, 243.996 301.538, 244.268 299.750 C 244.783 296.366, 244.367 294.688, 243.612 297.107 M 269.180 299.816 C 269.081 302.189, 268.525 305.114, 267.945 306.316 C 266.992 308.288, 267.026 308.331, 268.294 306.766 C 269.066 305.812, 269.946 305.279, 270.249 305.582 C 270.552 305.885, 271.139 305.584, 271.554 304.912 C 272.023 304.154, 271.892 303.948, 271.210 304.370 C 270.487 304.817, 269.983 303.418, 269.736 300.275 L 269.360 295.500 269.180 299.816 M 204.308 301.194 C 203.103 301.777, 201.868 302.902, 201.563 303.695 C 201.201 304.641, 201.909 304.430, 203.623 303.082 C 205.059 301.952, 206.702 301.316, 207.272 301.668 C 207.873 302.039, 208.009 301.823, 207.595 301.155 C 207.203 300.520, 206.796 300.030, 206.691 300.068 C 206.586 300.105, 205.514 300.612, 204.308 301.194 M 298.507 301.989 C 298.163 302.545, 298.543 302.729, 299.375 302.410 C 300.318 302.048, 301.409 302.867, 302.387 304.671 C 303.230 306.227, 303.938 307.038, 303.960 306.473 C 304.015 305.053, 301.084 301, 300.002 301 C 299.516 301, 298.843 301.445, 298.507 301.989 M 321.655 302.829 C 320.745 303.835, 320.010 305.072, 320.022 305.579 C 320.034 306.085, 320.892 305.397, 321.928 304.049 C 323.621 301.847, 323.998 301.745, 325.656 303.049 C 327.348 304.380, 327.387 304.356, 326.128 302.750 C 324.397 300.544, 323.712 300.556, 321.655 302.829 M 237 305.186 C 237 305.838, 236.066 307.365, 234.925 308.580 C 233.299 310.311, 233.136 310.955, 234.175 311.555 C 234.904 311.976, 235.171 311.957, 234.768 311.512 C 234.366 311.067, 234.847 309.982, 235.838 309.102 C 237.996 307.182, 239.326 304, 237.969 304 C 237.436 304, 237 304.533, 237 305.186 M 243.763 304.622 C 243.481 305.105, 244.630 306.850, 246.318 308.500 C 248.005 310.150, 248.687 310.600, 247.833 309.500 C 246.979 308.400, 245.829 306.655, 245.278 305.622 C 244.727 304.588, 244.046 304.138, 243.763 304.622 M 296.232 310 C 296.232 311.925, 296.438 312.712, 296.689 311.750 C 296.941 310.788, 296.941 309.212, 296.689 308.250 C 296.438 307.288, 296.232 308.075, 296.232 310 M 305.216 309.641 C 302.608 312.615, 301.258 318.861, 303.652 316.874 C 304.435 316.224, 304.783 314.893, 304.447 313.834 C 304.049 312.580, 304.293 312.042, 305.175 312.225 C 305.904 312.376, 306.387 311.938, 306.250 311.250 C 306.113 310.563, 306.477 310, 307.059 310 C 307.641 310, 307.864 309.588, 307.553 309.085 C 307.242 308.582, 307.553 307.943, 308.244 307.664 C 308.935 307.386, 309.050 307.130, 308.500 307.097 C 307.950 307.064, 306.472 308.208, 305.216 309.641 M 213.064 313.127 C 211.858 314.758, 211.073 316.860, 211.320 317.797 C 211.661 319.093, 211.796 318.992, 211.884 317.372 C 211.948 316.202, 212.657 314.700, 213.460 314.033 C 214.661 313.037, 215.302 313.415, 217.067 316.161 C 218.247 317.997, 218.886 318.600, 218.487 317.500 C 218.088 316.400, 217.740 314.962, 217.714 314.306 C 217.688 313.649, 217.235 313.199, 216.708 313.306 C 216.181 313.413, 215.544 312.937, 215.291 312.249 C 214.998 311.448, 215.402 311.217, 216.416 311.606 C 217.287 311.941, 218 311.989, 218 311.714 C 218 311.439, 217.383 310.977, 216.628 310.688 C 215.851 310.389, 214.307 311.446, 213.064 313.127 M 221.768 312.725 C 223.565 312.947, 226.265 312.943, 227.768 312.715 C 229.271 312.486, 227.800 312.304, 224.500 312.310 C 221.200 312.315, 219.971 312.502, 221.768 312.725 M 254.264 312.718 C 255.784 312.947, 258.034 312.941, 259.264 312.704 C 260.494 312.467, 259.250 312.279, 256.500 312.286 C 253.750 312.294, 252.744 312.488, 254.264 312.718 M 306.872 313.750 C 305.679 315.272, 305.695 315.351, 307 314.358 C 307.825 313.729, 309.400 312.994, 310.500 312.724 C 312.400 312.257, 312.393 312.226, 310.372 312.116 C 309.202 312.052, 307.627 312.788, 306.872 313.750 M 285.926 315.250 C 285.488 316.724, 285.045 320.276, 285.342 319.939 C 286.809 318.274, 287.932 315, 287.035 315 C 286.466 315, 285.967 315.113, 285.926 315.250 M 205.444 317.090 C 204.733 318.240, 211.986 326.347, 212.905 325.429 C 213.198 325.135, 211.986 323.757, 210.210 322.367 C 208.434 320.977, 207.280 319.357, 207.645 318.766 C 208.069 318.079, 207.831 317.987, 206.985 318.510 C 206.023 319.104, 205.835 318.872, 206.299 317.664 C 207.017 315.792, 206.473 315.426, 205.444 317.090 M 205.975 322.474 C 208.396 325.051, 208.253 325.274, 203.500 326.325 C 202.277 326.596, 202.763 326.813, 204.750 326.884 C 206.537 326.948, 208 326.523, 208 325.941 C 208 325.359, 208.563 325.203, 209.250 325.596 C 209.938 325.988, 209.178 324.890, 207.563 323.155 C 205.948 321.420, 204.407 320, 204.139 320 C 203.871 320, 204.697 321.113, 205.975 322.474 M 226.190 322.047 C 227.120 322.589, 229.069 324.488, 230.521 326.266 C 232.041 328.127, 232.701 328.568, 232.076 327.306 C 231.478 326.099, 230.534 324.830, 229.978 324.487 C 229.422 324.143, 229.269 323.373, 229.638 322.776 C 230.023 322.153, 229.847 321.977, 229.224 322.362 C 228.627 322.731, 227.856 322.575, 227.510 322.016 C 227.165 321.457, 226.346 321.014, 225.691 321.030 C 225.036 321.047, 225.261 321.504, 226.190 322.047 M 291.077 324.731 C 289.840 327.445, 289.845 327.450, 291.893 325.597 C 293.026 324.572, 293.712 323.343, 293.417 322.866 C 292.628 321.589, 292.440 321.738, 291.077 324.731 M 328.132 326.980 C 326.901 329.169, 325.131 331.445, 324.197 332.038 C 323.008 332.793, 322.946 333, 323.989 332.728 C 325.699 332.283, 332.655 323, 331.278 323 C 330.778 323, 329.362 324.791, 328.132 326.980 M 199.500 325 C 199.160 325.550, 199.212 326, 199.615 326 C 200.019 326, 199.258 327.238, 197.924 328.750 C 196.591 330.262, 195.909 331.166, 196.408 330.759 C 196.907 330.351, 198.032 330.576, 198.908 331.259 C 200.314 332.355, 200.341 332.297, 199.137 330.762 C 197.974 329.278, 198.001 328.937, 199.319 328.431 C 200.169 328.105, 200.798 326.975, 200.719 325.919 C 200.554 323.734, 200.369 323.594, 199.500 325 M 280.219 327.004 C 280.172 328.672, 280.525 329.793, 281.005 329.497 C 281.485 329.201, 281.694 328.007, 281.470 326.844 C 280.843 323.588, 280.314 323.656, 280.219 327.004 M 293.652 325.832 C 291.598 328.102, 291.535 329.116, 293.494 328.364 C 294.316 328.048, 294.759 327.419, 294.478 326.964 C 294.197 326.510, 294.394 325.875, 294.915 325.553 C 295.436 325.231, 296.144 325.425, 296.490 325.984 C 297.252 327.217, 301.674 327.337, 302.411 326.144 C 302.702 325.674, 301.826 325.502, 300.464 325.762 C 299.102 326.022, 297.384 325.734, 296.646 325.121 C 295.629 324.277, 294.903 324.449, 293.652 325.832 M 218.468 327.101 C 218.101 328.256, 218.184 329.582, 218.651 330.047 C 219.118 330.513, 219.594 329.567, 219.710 327.947 C 219.955 324.497, 219.412 324.127, 218.468 327.101 M 211.630 328.440 C 215.888 330.293, 216.444 331.576, 213.794 333.432 C 212.563 334.294, 212.079 335, 212.718 335 C 213.358 335, 214.165 334.543, 214.510 333.984 C 214.856 333.425, 215.518 333.202, 215.981 333.488 C 216.445 333.775, 216.715 333.263, 216.581 332.351 C 216.274 330.259, 212.306 326.987, 210.139 327.039 C 209.238 327.061, 209.908 327.691, 211.630 328.440 M 178.438 330.101 C 178.063 330.706, 178.735 332.169, 179.930 333.351 C 181.666 335.068, 181.970 335.148, 181.444 333.750 C 181.082 332.788, 180.336 332, 179.786 332 C 179.236 332, 179.045 331.325, 179.362 330.500 C 180.031 328.755, 179.430 328.495, 178.438 330.101 M 223.796 331.092 C 224.449 331.968, 224.720 332.947, 224.398 333.268 C 224.077 333.590, 225.318 334.588, 227.157 335.486 C 230.398 337.071, 230.439 337.065, 228.500 335.310 C 227.400 334.315, 225.625 332.600, 224.555 331.500 C 223.485 330.400, 223.143 330.216, 223.796 331.092 M 287.583 330.866 C 287.033 331.756, 289.337 334.133, 292 335.422 C 292.825 335.822, 292.260 335.176, 290.745 333.987 C 289.230 332.798, 288.244 331.415, 288.554 330.913 C 288.864 330.411, 288.893 330, 288.618 330 C 288.343 330, 287.877 330.390, 287.583 330.866 M 233 333.500 C 233 334.875, 233.388 336, 233.861 336 C 234.335 336, 234.508 334.875, 234.245 333.500 C 233.982 332.125, 233.594 331, 233.383 331 C 233.173 331, 233 332.125, 233 333.500 M 205 334.986 C 205.825 335.527, 207.588 335.976, 208.917 335.985 C 212.126 336.005, 211.313 335.436, 207 334.645 C 204.538 334.193, 203.945 334.294, 205 334.986 M 320.500 336.538 C 315.820 341.543, 314.925 343.176, 318.994 339.284 C 321.419 336.966, 323.199 334.918, 322.951 334.734 C 322.703 334.550, 321.600 335.362, 320.500 336.538 M 221 337.028 L 217.500 337.792 221.690 337.704 C 223.995 337.656, 225.656 337.252, 225.381 336.808 C 225.107 336.364, 224.796 336.059, 224.691 336.132 C 224.586 336.204, 222.925 336.607, 221 337.028 M 281.250 337.689 C 282.212 337.941, 283.788 337.941, 284.750 337.689 C 285.712 337.438, 284.925 337.232, 283 337.232 C 281.075 337.232, 280.288 337.438, 281.250 337.689 M 212.952 340.557 C 211.062 342.835, 215.588 347.197, 218.500 345.905 L 220.500 345.017 218.500 345.287 C 217.400 345.436, 215.644 344.773, 214.599 343.814 C 213.027 342.372, 212.918 341.803, 213.971 340.535 C 214.672 339.691, 215.020 339, 214.745 339 C 214.470 339, 213.663 339.701, 212.952 340.557 M 230.872 341.662 C 230.118 342.576, 228.150 344.150, 226.500 345.158 C 224.850 346.167, 224.028 346.994, 224.673 346.996 C 225.319 346.998, 227.160 345.894, 228.766 344.543 C 231.091 342.587, 231.963 342.332, 233.045 343.293 C 234.167 344.290, 234.195 344.222, 233.210 342.908 C 232.554 342.032, 232.313 341.020, 232.675 340.658 C 233.037 340.296, 233.088 340, 232.789 340 C 232.490 340, 231.627 340.748, 230.872 341.662 M 248.500 344 C 249.600 344.473, 251.400 344.846, 252.500 344.830 C 254.108 344.806, 254.010 344.644, 252 344 C 248.581 342.905, 245.952 342.905, 248.500 344 M 274.781 344.337 C 276.036 345.034, 276.725 345.942, 276.312 346.355 C 275.899 346.768, 276.388 346.789, 277.398 346.401 C 279.082 345.754, 279.038 345.587, 276.867 344.383 C 275.565 343.662, 274.050 343.071, 273.500 343.071 C 272.950 343.071, 273.527 343.641, 274.781 344.337 M 193.532 345.223 C 193.872 346.109, 196.029 348.043, 198.325 349.522 C 202.069 351.933, 202.238 351.968, 199.960 349.855 C 194.055 344.378, 192.884 343.534, 193.532 345.223 M 302.792 348.764 C 303.847 349.116, 303.847 349.481, 302.792 350.761 C 301.659 352.135, 301.745 352.189, 303.500 351.197 C 307.947 348.684, 308.105 348.333, 304.789 348.333 C 302.980 348.333, 302.081 348.527, 302.792 348.764 M 243.250 350.031 C 239.901 351.377, 240.527 352.061, 244 350.850 C 245.650 350.275, 247 349.623, 247 349.402 C 247 348.809, 245.783 349.013, 243.250 350.031 M 273.975 351.658 C 275.480 352.405, 275.224 353.784, 273.480 354.325 C 272.418 354.655, 272.493 354.748, 273.730 354.635 C 275.750 354.450, 276.157 351.800, 274.225 351.408 C 273.524 351.266, 273.411 351.379, 273.975 351.658 M 228 352.859 C 228 354.420, 232.930 355.470, 234.217 354.183 C 234.978 353.422, 234.666 353.274, 233.139 353.674 C 231.957 353.983, 230.317 353.678, 229.495 352.996 C 228.488 352.160, 228 352.115, 228 352.859 M 263 357.121 C 263 357.669, 263.450 357.840, 264 357.500 C 264.606 357.125, 265 358.545, 265 361.108 C 265 366.315, 266.236 365.526, 266.389 360.221 C 266.475 357.239, 266.111 356.357, 264.750 356.255 C 263.788 356.183, 263 356.573, 263 357.121 M 247 359.500 C 247 360.325, 247.450 361, 248 361 C 248.550 361, 249 360.325, 249 359.500 C 249 358.675, 248.550 358, 248 358 C 247.450 358, 247 358.675, 247 359.500 M 258.761 360.530 C 259.021 361.889, 259.589 363, 260.023 363 C 260.950 363, 260.099 359.179, 259.024 358.515 C 258.620 358.265, 258.501 359.172, 258.761 360.530 M 238.128 360.654 C 239.330 362.103, 238.524 365.442, 237.174 364.607 C 236.712 364.322, 236.333 364.700, 236.333 365.448 C 236.333 366.517, 236.726 366.563, 238.167 365.664 C 240.397 364.271, 240.669 359.333, 238.516 359.333 C 237.400 359.333, 237.303 359.661, 238.128 360.654 M 247.930 363.869 C 248.480 364.896, 248.645 366.021, 248.298 366.369 C 247.951 366.716, 247.912 367, 248.211 367 C 248.510 367, 249.373 366.239, 250.128 365.308 C 251.060 364.158, 251.099 363.857, 250.250 364.367 C 249.463 364.840, 249 364.540, 249 363.559 C 249 362.702, 248.534 362, 247.965 362 C 247.264 362, 247.252 362.603, 247.930 363.869 M 254.200 363.200 C 252.565 364.835, 252.672 366.517, 254.324 365.146 C 255.259 364.370, 255.960 364.360, 256.711 365.111 C 257.462 365.862, 258 365.810, 258.542 364.933 C 259.036 364.132, 258.899 363.945, 258.155 364.405 C 257.470 364.827, 257 364.483, 257 363.559 C 257 361.697, 255.850 361.550, 254.200 363.200 M 237 379.911 C 238.375 381.035, 239.950 381.959, 240.500 381.962 C 241.570 381.970, 239.762 380.585, 236.500 378.899 C 235.172 378.213, 235.339 378.552, 237 379.911" stroke="none" fill="#f7f7f6" fill-rule="evenodd"/></svg>